<svg xmlns="http://www.w3.org/2000/svg" xmlns:xlink="http://www.w3.org/1999/xlink" width="136.766" height="136.766" viewBox="0 0 136.766 136.766">
  <defs>
    <filter id="Tracé_25" x="0" y="0" width="136.766" height="136.766" filterUnits="userSpaceOnUse">
      <feOffset dy="6" input="SourceAlpha"/>
      <feGaussianBlur stdDeviation="12.5" result="blur"/>
      <feFlood flood-opacity="0.302"/>
      <feComposite operator="in" in2="blur"/>
      <feComposite in="SourceGraphic"/>
    </filter>
  </defs>
  <g id="Groupe_236" data-name="Groupe 236" transform="translate(-14.681 -631.271)">
    <g transform="matrix(1, 0, 0, 1, 14.68, 631.27)" filter="url(#Tracé_25)">
      <path id="Tracé_25-2" data-name="Tracé 25" d="M501.668,951.849a30.883,30.883,0,1,1-30.883-30.883,30.883,30.883,0,0,1,30.883,30.883" transform="translate(-402.4 -889.47)" fill="#c34822"/>
    </g>
    <path id="Tracé_26" data-name="Tracé 26" d="M594.963,1087.919a19.268,19.268,0,0,1-.1-2.9c-.006-.584-.011-1.169-.014-1.626a9.229,9.229,0,0,0-3.164-.552h-.137a9.364,9.364,0,0,0-3.163.554c0,.456-.008,1.041-.015,1.624a19.2,19.2,0,0,1-.1,2.9,6.184,6.184,0,0,1-2.807,4.057,20.2,20.2,0,0,1,6.332,5.073c.6-.6,1.322-1.288,2.106-1.982a25.775,25.775,0,0,1,4.01-3.005,6.185,6.185,0,0,1-2.949-4.143" transform="translate(-508.553 -392.565)" fill="#fff"/>
    <path id="Tracé_27" data-name="Tracé 27" d="M536,988.735a21.68,21.68,0,1,0,1.7,8.412,21.537,21.537,0,0,0-1.7-8.412m-19.914,29.455a20.929,20.929,0,0,1-12.117-3.848,2.451,2.451,0,0,0,3.279-3.325,14.349,14.349,0,0,1-1.663-4.36.406.406,0,0,1,.309-.307,8,8,0,0,1,2.228.809,17.486,17.486,0,0,1,5.991,5.546,2.436,2.436,0,0,0,1.859,1.02c.045,0,.089,0,.134,0a2.452,2.452,0,0,0,1.828-.819,48.687,48.687,0,0,1,3.51-3.469c3.2-2.828,4.562-3.077,4.772-3.1a.405.405,0,0,1,.356.3,15.123,15.123,0,0,1-1.515,4.366,2.452,2.452,0,0,0,2.954,3.466,20.923,20.923,0,0,1-11.923,3.712m11.135-4.153a1.88,1.88,0,0,1-1.662-2.759,15.656,15.656,0,0,0,1.582-4.591l.007-.043-.006-.043a.969.969,0,0,0-.92-.829h-.032c-.373.027-1.845.339-5.125,3.241a48.413,48.413,0,0,0-3.558,3.517,1.881,1.881,0,0,1-1.4.628c-.034,0-.067,0-.1,0a1.869,1.869,0,0,1-1.427-.783,18.051,18.051,0,0,0-6.192-5.72,8.321,8.321,0,0,0-2.446-.873l-.039-.006-.039,0a.98.98,0,0,0-.846.839l0,.036,0,.036a14.544,14.544,0,0,0,1.729,4.592,1.88,1.88,0,0,1-.789,2.539,1.88,1.88,0,0,1-2.54-.789c-.091-.174-.188-.361-.286-.557a25.125,25.125,0,0,1-1.053-2.373c-.239-.63-.417-1.246-.574-1.817a5.755,5.755,0,0,1-.247-1.653,4.64,4.64,0,0,1,.355-1.706,4.751,4.751,0,0,1,1.4-1.867l.367-.3-.433-.187a27.065,27.065,0,0,1-5.625-3.447,1.88,1.88,0,0,1,1.148-3.369,1.887,1.887,0,0,1,1.147.391c4.268,3.291,6.754,3.612,7.024,3.638h.114a2.146,2.146,0,0,0,2.062-2.15v-15.5a1.88,1.88,0,1,1,3.761,0v1.817l.511-.662a3.867,3.867,0,0,1,6.01-.157l.5.584v-1.582a1.88,1.88,0,0,1,3.761,0v15.5a2.146,2.146,0,0,0,2.064,2.15h.114c.27-.026,2.76-.352,7.023-3.638a1.887,1.887,0,0,1,1.147-.391,1.88,1.88,0,0,1,1.148,3.369,27.076,27.076,0,0,1-5.647,3.457l-.43.186.363.3a4.963,4.963,0,0,1,.374.338,4.676,4.676,0,0,1,1.381,3.34v.066a10.43,10.43,0,0,1-.665,3.029l-.037.115a19.9,19.9,0,0,1-1.308,3.081,1.877,1.877,0,0,1-1.663,1m2-.458a2.487,2.487,0,0,0,.171-.277,20.472,20.472,0,0,0,1.345-3.17l.037-.115a10.883,10.883,0,0,0,.693-3.2v-.07a5.243,5.243,0,0,0-1.547-3.743l-.078-.077a28.51,28.51,0,0,0,5.362-3.347h0a2.45,2.45,0,0,0-1.5-4.39,2.461,2.461,0,0,0-1.5.509c-4.073,3.14-6.4,3.487-6.717,3.521h-.054a1.578,1.578,0,0,1-1.511-1.581v-15.5a2.45,2.45,0,0,0-4.9,0v.128a4.435,4.435,0,0,0-5.882.12v-.248a2.45,2.45,0,1,0-4.9,0v15.5a1.578,1.578,0,0,1-1.51,1.581h-.055c-.311-.033-2.638-.376-6.717-3.521a2.461,2.461,0,0,0-1.5-.509,2.45,2.45,0,0,0-1.5,4.39,28.5,28.5,0,0,0,5.339,3.336,5.319,5.319,0,0,0-1.228,1.79,5.206,5.206,0,0,0-.4,1.915,6.275,6.275,0,0,0,.268,1.814c.161.584.344,1.215.591,1.867a25.692,25.692,0,0,0,1.077,2.427c.1.2.2.39.291.567a2.457,2.457,0,0,0,.415.572,21.043,21.043,0,1,1,25.893-.289" transform="translate(-433.019 -303.493)" fill="#fff"/>
    <path id="Tracé_28" data-name="Tracé 28" d="M564.312,1137.4h-.025a3.675,3.675,0,0,0-1.227.218c-.021.007-.042.015-.063.024a17.57,17.57,0,0,0-5.628,3.7c-1.281,1.134-2.385,2.253-3.063,2.966-3.552-4.6-7.034-6.14-8.855-6.652a3.675,3.675,0,0,0-1.348-.254h-.041a3.853,3.853,0,0,0-2.048.647,3.739,3.739,0,0,0-1.331,1.636,3.645,3.645,0,0,0-.276,1.331,4.721,4.721,0,0,0,.211,1.361c.161.583.33,1.159.545,1.726a24.25,24.25,0,0,0,1.01,2.277q.136.271.278.54a.855.855,0,0,0,1.513-.8,14.842,14.842,0,0,1-1.854-5.071,2,2,0,0,1,1.963-1.942,8.775,8.775,0,0,1,2.91,1,19.056,19.056,0,0,1,6.555,6.033.855.855,0,0,0,.649.356h.046a.855.855,0,0,0,.638-.286,49.332,49.332,0,0,1,3.643-3.6c3.379-2.99,5.085-3.478,5.806-3.5a2,2,0,0,1,1.985,1.95,16.3,16.3,0,0,1-1.71,5.062.855.855,0,1,0,1.511.8,18.855,18.855,0,0,0,1.24-2.922,10.025,10.025,0,0,0,.651-2.843c0-.017,0-.035,0-.052a3.715,3.715,0,0,0-3.686-3.7" transform="translate(-471.151 -437.861)" fill="#fff"/>
    <path id="Tracé_29" data-name="Tracé 29" d="M520.333,1030.321a4.856,4.856,0,0,0,1.6.29H522a4.894,4.894,0,0,0,4.8-4.026c.049-.108.077-5.06.077-5.06a10.938,10.938,0,0,1,9.073,0s.028,4.952.077,5.06a4.894,4.894,0,0,0,4.8,4.026h.068a4.856,4.856,0,0,0,1.6-.29c.221-.063.464-.14.727-.235a23.955,23.955,0,0,0,6.331-3.684.855.855,0,0,0-1.044-1.354c-4.741,3.655-7.415,3.844-7.647,3.853-.017,0,0,0-.028,0a3.18,3.18,0,0,1-3.177-3.177v-15.5a.855.855,0,0,0-1.709,0v9.445a12.32,12.32,0,0,0-4.524-.837H531.4a12.32,12.32,0,0,0-4.524.837v-9.445a.855.855,0,0,0-1.709,0v15.5a3.181,3.181,0,0,1-3.177,3.177c-.033,0-.011,0-.028,0-.232-.009-2.906-.2-7.647-3.853a.855.855,0,0,0-1.044,1.354,23.954,23.954,0,0,0,6.331,3.684c.263.094.505.171.727.235" transform="translate(-448.352 -331.579)" fill="#fff"/>
  </g>
</svg>
