<svg xmlns="http://www.w3.org/2000/svg" xmlns:xlink="http://www.w3.org/1999/xlink" width="61.634" height="49.351" viewBox="0 0 61.634 49.351"><defs><clipPath id="a"><rect width="61.634" height="49.351" fill="#fff"/></clipPath></defs><g clip-path="url(#a)"><path d="M2.056,225.3,0,225.313v-2.048l2.055.007-.016-.017q0,1.032,0,2.065Z" transform="translate(0 -194.508)" fill="#fff"/><path d="M90.555,14.218a23.638,23.638,0,0,1,2.086-6.551,14.214,14.214,0,0,1,4.982-5.825C98.4,1.342,99.15.806,99.908.28a1.036,1.036,0,0,1,1.286-.094,53.108,53.108,0,0,1,4.738,3.584,15.167,15.167,0,0,1,4.044,7c.348,1.165.566,2.37.844,3.558,3.18-.489,6.25.535,9.382.835.713.068,1,.573.925,1.362-.222,2.4-.438,4.795-.662,7.191-.267,2.856-.492,5.717-.822,8.566a7.657,7.657,0,0,1-5.959,6.618,10.342,10.342,0,0,1-4-.169c-1.961-.306-3.921-.621-5.881-.934a.875.875,0,0,1-.4-.1,1.351,1.351,0,0,0-1.6-.018,2.669,2.669,0,0,1-2.424,0,7.044,7.044,0,0,0-.85-.288l.042.17a7.529,7.529,0,0,1-1.4.509c-2.159.34-4.321.668-6.491.925a7.4,7.4,0,0,1-8.033-5.985c-.69-4.031-1.292-8.077-1.929-12.116-.216-1.367-.434-2.733-.631-4.1-.123-.856.206-1.268,1.074-1.405,2.475-.391,4.948-.8,7.428-1.158a14.174,14.174,0,0,1,1.963-.013m10.06-11.936c-.895.621-1.847,1.191-2.69,1.892a11.743,11.743,0,0,0-2.04,2.109,18.745,18.745,0,0,0-3.526,10.994c-.032,3.649.118,7.3.321,10.949a16.036,16.036,0,0,0,.848,3.854,3.222,3.222,0,0,0,2.311,2.241c1.405.4,2.765.952,4.163,1.382a2.173,2.173,0,0,0,1.2,0c1.4-.427,2.758-.986,4.166-1.371a3.437,3.437,0,0,0,2.464-2.408,12.7,12.7,0,0,0,.792-3.5c.127-4.391.237-8.789.11-13.178a16.032,16.032,0,0,0-2.975-8.523,17.183,17.183,0,0,0-5.147-4.441m6.1,33.95c1.937.249,3.87.524,5.812.726a3.159,3.159,0,0,0,1.4-.259,5.8,5.8,0,0,0,3.766-5.32q.415-4.372.814-8.745c.169-1.833.332-3.666.5-5.542-.263-.048-.494-.1-.728-.132-1.587-.227-3.176-.444-4.762-.678a4.877,4.877,0,0,0-2.594.263c0,.17,0,.309,0,.448-.02,3.07-.032,6.139-.065,9.209a19.849,19.849,0,0,1-.747,5.585,7.038,7.038,0,0,1-3.4,4.444M95.094,36.3a11.492,11.492,0,0,1-1.479-.76,6,6,0,0,1-2.05-2.767,18.14,18.14,0,0,1-1.076-6.071c-.123-3.466-.195-6.934-.291-10.513-2.643.118-5.261.763-7.928,1.093.015.228.014.349.033.466.758,4.833,1.5,9.667,2.283,14.5a5.4,5.4,0,0,0,6.032,4.693c1.468-.172,2.928-.415,4.475-.637" transform="translate(-69.756 0)" fill="#fff"/><path d="M86.442,327.629H67.47c-2.433,0-3.654-1.226-3.65-3.676a14.764,14.764,0,0,1,.065-1.8,2.945,2.945,0,0,1,3.182-2.711c2,.12,4,.37,5.993.548,4.835.43,9.653,1.2,14.523.992,3.265-.141,6.523-.471,9.78-.755,2.638-.229,5.276-.483,7.906-.786a3.231,3.231,0,0,1,3.8,3.548c-.019.461.01.924-.006,1.385a3.154,3.154,0,0,1-3.346,3.254c-2.369.011-4.738,0-7.107,0H86.442m-.022-2.056h15.716c1.184,0,2.369.008,3.553,0a1.15,1.15,0,0,0,1.316-1.281c.016-.441.006-.883,0-1.325-.008-1.2-.388-1.57-1.572-1.46-2.616.243-5.229.532-7.846.767-3.1.278-6.192.593-9.3.758-4.768.253-9.492-.424-14.224-.874-2.257-.215-4.511-.454-6.768-.658-1-.09-1.4.3-1.427,1.3-.012.4,0,.8,0,1.2,0,1.238.335,1.567,1.578,1.567H86.42" transform="translate(-55.602 -278.281)" fill="#fff"/><path d="M46.385,51.008A3.074,3.074,0,1,1,43.3,47.966a3.092,3.092,0,0,1,3.087,3.043m-3.072-.975a1.019,1.019,0,0,0-1.017.977,1.016,1.016,0,0,0,2.032.058,1.011,1.011,0,0,0-1.015-1.035" transform="translate(-35.056 -41.789)" fill="#fff"/><path d="M394.653,47.992a3.075,3.075,0,1,1-3.144,2.985,3.083,3.083,0,0,1,3.144-2.985m.936,3.08a1,1,0,1,0-1.046,1,.992.992,0,0,0,1.046-1" transform="translate(-341.095 -41.811)" fill="#fff"/><path d="M317.777,19.079a3.059,3.059,0,0,1-3.075,3.049,3.076,3.076,0,1,1,3.075-3.049m-3.083.981a1.006,1.006,0,1,0,.033-2.013,1.007,1.007,0,1,0-.033,2.013" transform="translate(-271.503 -13.918)" fill="#fff"/><path d="M126.16,19.033a3.05,3.05,0,0,1-3.033,3.088,3.075,3.075,0,1,1,3.033-3.088m-3.036,1.02a.982.982,0,0,0,.97-1.061,1,1,0,0,0-1.029-.949,1.017,1.017,0,0,0-.983,1.008,1,1,0,0,0,1.042,1" transform="translate(-104.557 -13.914)" fill="#fff"/><path d="M15.851,209.831v-2h2.032v2l.017-.014H15.835Z" transform="translate(-13.796 -181.066)" fill="#fff"/><path d="M447.154,209.78v-2.009h2.03v2.009l.018-.015h-2.065Z" transform="translate(-389.562 -181.018)" fill="#fff"/><path d="M31.717,223.275h2.024V225.3H31.714l.02.021v-2.064Z" transform="translate(-27.631 -194.513)" fill="#fff"/><path d="M433.581,225.3h-2.026v-2.029h2.024l-.017-.014q0,1.032,0,2.065Z" transform="translate(-375.986 -194.512)" fill="#fff"/><path d="M463.034,223.271h2.012V225.3h-2.012l.016.018q0-1.032,0-2.065Z" transform="translate(-403.412 -194.509)" fill="#fff"/><path d="M17.883,239.128v2.057H15.855v-2.055l-.016.018H17.9Z" transform="translate(-13.8 -208.337)" fill="#fff"/><path d="M449.18,239.131v2.056h-2.028v-2.058l-.02.021H449.2Z" transform="translate(-389.558 -208.337)" fill="#fff"/></g></svg>