<svg xmlns="http://www.w3.org/2000/svg" xmlns:xlink="http://www.w3.org/1999/xlink" width="62.127" height="45.938" viewBox="0 0 62.127 45.938"><defs><clipPath id="a"><rect width="62.127" height="45.938" fill="#fff"/></clipPath></defs><g clip-path="url(#a)"><path d="M62.127,38.951a1.622,1.622,0,0,1-1.346.636,153.22,153.22,0,0,1-16.241.309A72.776,72.776,0,0,1,32.8,38.645a3.4,3.4,0,0,0-1.864.278c-2.435,1.029-4.818,2.179-7.254,3.2A60.044,60.044,0,0,1,12.548,45.8a14.541,14.541,0,0,1-5.234.323c-2.255-.354-3.27-1.613-3.132-3.894a24.807,24.807,0,0,1,1.7-6.916.717.717,0,0,0-.32-1.013,30.8,30.8,0,0,1-2.57-2.022A9.262,9.262,0,0,1,0,28.03v-.971a10.309,10.309,0,0,1,3.364-3.742c.9-.711,1.852-1.364,2.82-2.072-.424-1.2-.844-2.415-1.285-3.624a12.489,12.489,0,0,1-.48-4.287c-.028-2.885,1.523-4.843,3.367-6.72a1.3,1.3,0,0,0,.293-.379A7.051,7.051,0,0,1,13.932,1.8c1.714-.245,3.3-.838,4.959-1.227a8.173,8.173,0,0,1,3.847.038,4.96,4.96,0,0,1,3.684,3.433c.243.717.005,1.255-.581,1.432s-1.007-.1-1.255-.812a3.208,3.208,0,0,0-2.85-2.275,7.307,7.307,0,0,0-3.893.516A6.4,6.4,0,0,0,20.8,4.6c1.293.387,2.569.834,3.847,1.274a5.792,5.792,0,0,1,.87.425c2.182,1.19,2.986,2.364,2.674,5.406a1.668,1.668,0,0,0,.242,1.18,4.308,4.308,0,0,1-.14,4.594c-.14.266-.332.5-.614.928a7.982,7.982,0,0,0,1.308.159c.562-.027,1.119-.159,1.68-.23.721-.091,1.193.216,1.266.8.075.61-.281,1.014-.993,1.122-.739.112-1.475.264-2.218.319a2.606,2.606,0,0,1-1.153-.2,18.414,18.414,0,0,1-1.662-.872c-.953-.519-1.04-1.192-.228-1.9A3.943,3.943,0,0,0,27,15.352a1.739,1.739,0,0,0-.911-2.1A11.262,11.262,0,0,0,21.97,11.9c-2.534-.4-5.09-.667-7.611-1.129a19.534,19.534,0,0,1-3.486-1.167.956.956,0,0,1-.624-1.359.975.975,0,0,1,1.45-.367,18.5,18.5,0,0,0,5.968,1.467c2.193.342,4.386.69,6.569,1.088a16.044,16.044,0,0,1,2.01.636,2.3,2.3,0,0,0-1.06-2.706,16.06,16.06,0,0,0-4.95-1.911,7.633,7.633,0,0,1-4.172-2.639.87.87,0,0,0-.646-.289c-2.53.253-4.687,1.088-5.664,3.726a2.625,2.625,0,0,1-.511.66C8.536,8.766,7.8,9.6,7.128,10.477a4.033,4.033,0,0,0-.57,1.2,2.077,2.077,0,0,0,1.621,2.994,17.655,17.655,0,0,0,3.726.3c2.605-.037,5.208-.232,7.814-.266a11.888,11.888,0,0,1,4.506.825,3.052,3.052,0,0,1,.657.3.891.891,0,0,1,.362,1.165.857.857,0,0,1-1.132.558c-3.4-1.37-6.913-.913-10.422-.741-1.748.086-3.508.012-5.259-.076a9.646,9.646,0,0,1-1.915-.5c.069.243.127.491.211.73.632,1.81,1.263,3.62,1.907,5.425a4.547,4.547,0,0,1,.057,2.625,11.7,11.7,0,0,0-.3,1.666.685.685,0,0,0,.35.555,3.028,3.028,0,0,1,2.042,1.837c.411.917.832,1.829,1.219,2.755.245.587.509.7.99.306a43.953,43.953,0,0,0,5.841-5.723c.485-.574.231-1.228.144-1.854-.036-.258-.159-.5-.191-.761a.887.887,0,0,1,.649-1.032.834.834,0,0,1,1.121.46c.541,1.424.931,2.891-.151,4.247-.766.961-1.619,1.853-2.418,2.788a2.018,2.018,0,0,0-.421.7c-.3,1.022-.561,2.055-.88,3.243a20.475,20.475,0,0,0,6.658-4.176c-.531.048-1.061.094-1.592.144-.7.066-1.191-.254-1.259-.831-.072-.61.281-1.016,1-1.1,1.1-.123,2.211-.24,3.319-.315a.755.755,0,0,0,.742-.492c.155-.372.315-.743.468-1.116a.979.979,0,0,1,1.244-.663.946.946,0,0,1,.581,1.282,12.642,12.642,0,0,1-1.09,2.219,15.855,15.855,0,0,1-6.147,5.275c-1.534.8-3.158,1.429-4.742,2.135a1.066,1.066,0,0,1-1.246-.1A1.084,1.084,0,0,1,14.4,35.24c.195-.675.358-1.36.584-2.23-.375.306-.61.5-.851.694a2.46,2.46,0,0,1-3.941-1.143c-.392-1.031-.894-2.02-1.377-3.013a1.094,1.094,0,0,0-.491-.392c-.3-.157-.642-.246-.941-.409a1.571,1.571,0,0,1-.944-1.567c.095-.979.268-1.951.4-2.927.043-.314.066-.63.1-.942-.108-.016-.163-.041-.184-.024-1.472,1.192-2.947,2.381-4.409,3.586a.987.987,0,0,0-.175,1.412,6.823,6.823,0,0,0,.939,1.33c1.157,1.115,2.367,2.175,3.654,3.346.238-.554.391-.918.55-1.28.32-.726.788-.983,1.356-.749.586.241.711.77.426,1.54-.8,2.157-1.614,4.308-2.342,6.488a18.106,18.106,0,0,0-.631,2.956c-.256,1.653.288,2.285,1.957,2.377a18.572,18.572,0,0,0,5.8-.8A90.946,90.946,0,0,0,28.89,37.7c.4-.188.806-.373,1.208-.562a5.164,5.164,0,0,1,3.36-.383,66.877,66.877,0,0,0,13.989,1.225c4.405-.027,8.809-.214,13.213-.358a1.512,1.512,0,0,1,1.466.6Z" transform="translate(0 -0.307)" fill="#fff"/><path d="M218.006,1.392q-4.565,4.61-9.131,9.221-3.181,3.21-6.366,6.417c-.126.127-.245.262-.427.457.238.02.406.043.575.047,1.779.041,3.558.077,5.337.119.7.017,1.148.417,1.132.994s-.465.955-1.176.943c-2.082-.035-4.164-.084-6.247-.126-.22,0-.44,0-.644,0a.767.767,0,0,0-.092.206,4.681,4.681,0,0,1-1.891,3.254c-.658.6-1.3,1.217-1.954,1.819-1.435,1.315-2.85,1.05-3.663-.623-1.22.658-2.422,1.357-3.671,1.96a6.712,6.712,0,0,1-1.957.585,1.54,1.54,0,0,1-1.861-1.687,6.371,6.371,0,0,1,.57-2.138,13.792,13.792,0,0,1,5.785-6.029,8.35,8.35,0,0,1,1.5-.783,3.5,3.5,0,0,0,1.717-1.435q4.782-6.681,9.606-13.332c.614-.851,1.123-1.039,1.675-.617.527.4.5.927-.094,1.748q-5.112,7.078-10.239,14.147a3.02,3.02,0,0,1-1.151.908,15.082,15.082,0,0,0-5.977,4.428,23.165,23.165,0,0,0-1.549,2.685l.208.205a24.373,24.373,0,0,0,2.918-1.5c1.593-1.1,3.094-2.333,4.631-3.512.16-.123.306-.265.466-.388a1,1,0,0,1,1.372-.011.967.967,0,0,1,.023,1.37c-.561.767-1.141,1.519-1.712,2.278-.114.152-.222.308-.333.462l.142.128c.693-.65,1.352-1.34,2.086-1.939a4.141,4.141,0,0,0,1.58-3.126,2.791,2.791,0,0,1,.936-1.886Q208.177,8.595,216.177.509c.686-.691,1.17-.678,1.829.034Z" transform="translate(-155.879 0)" fill="#fff"/><path d="M274.149,90.987a9.473,9.473,0,0,1-.94.726c-1.388.826-2.8,1.609-4.185,2.445-.913.552-1.808,1.139-2.677,1.759a11.311,11.311,0,0,1-6.113,2.244,36.168,36.168,0,0,1-4.654-.043,3.238,3.238,0,0,1-1.73-.881,2.131,2.131,0,0,1-.12-3.393,21.885,21.885,0,0,1,5.558-4.16,7.013,7.013,0,0,1,4.571-.346.972.972,0,0,0,.909-.295q3.717-3.484,7.457-6.944c.794-.737,1.18-.725,1.925.03v.728c-.216.237-.418.49-.651.708-2.437,2.274-4.906,4.515-7.3,6.83a2.5,2.5,0,0,1-2.632.858,5.78,5.78,0,0,0-.96-.119,3.8,3.8,0,0,0-2.7.415c-1.536,1.072-3.038,2.2-4.508,3.36-.633.5-.427,1.1.385,1.3a3.758,3.758,0,0,0,.961.109c1.19-.026,2.388,0,3.566-.14a9.821,9.821,0,0,0,5.268-2.1,9.217,9.217,0,0,1,1.171-.847c1.859-1.1,3.73-2.177,5.6-3.261.867-.5,1.192-.451,1.8.285Z" transform="translate(-212.023 -68.36)" fill="#fff"/></g></svg>