<svg xmlns="http://www.w3.org/2000/svg" xmlns:xlink="http://www.w3.org/1999/xlink" width="57.055" height="55.268" viewBox="0 0 57.055 55.268"><defs><clipPath id="a"><rect width="57.055" height="55.268" fill="none"/></clipPath></defs><g clip-path="url(#a)"><path d="M0,35.411c.075-.227.144-.457.227-.682a3.531,3.531,0,0,1,3.293-2.322c1.559-.016,3.119,0,4.789,0-.134-.265-.232-.471-.339-.672Q5.39,26.9,2.809,22.06a7.19,7.19,0,0,1-.732-5.746,5.968,5.968,0,0,1,4.755-4.287,6.024,6.024,0,0,1,6.222,2.332c1.913,2.393,3.784,4.818,5.673,7.231q4.069,5.2,8.129,10.4a.99.99,0,0,0,.885.421q12.48-.018,24.961-.009c2.584,0,3.44.592,4.354,3.009v1.226c-.048.115-.1.227-.143.345a3.434,3.434,0,0,1-2.121,2.279.558.558,0,0,0-.417.649c.013,1.764.024,3.528,0,5.291A15.162,15.162,0,0,1,43.288,59.472c-1.028.278-2.092.423-3.171.635v.541c0,.687.013,1.374,0,2.061A2.807,2.807,0,0,1,38,65.387H19.056a2.982,2.982,0,0,1-2.125-3.4c.049-.642.008-1.291.008-1.892-1.044-.2-2.044-.316-3.007-.574A15.09,15.09,0,0,1,2.676,44.889c-.009-1.671,0-3.342-.01-5.012,0-.176-.071-.471-.179-.509A3.805,3.805,0,0,1,0,36.526Zm4.46,4.123c0,1.9-.012,3.738,0,5.573a12.015,12.015,0,0,0,1.076,5.025c2.458,5.272,6.627,8.033,12.434,8.1,6.945.083,13.891.028,20.836.01a17.889,17.889,0,0,0,2.824-.221,13.257,13.257,0,0,0,10.838-11.6c.19-2.232.088-4.488.115-6.734,0-.047-.045-.094-.075-.154H51.84q-5.321,0-10.641,0c-.669,0-1.063-.327-1.077-.867-.015-.559.4-.911,1.087-.912q2.9-.006,5.794,0c2.154,0,4.308.008,6.463,0a1.776,1.776,0,0,0,.4-3.514,3.424,3.424,0,0,0-.72-.046q-24.625,0-49.25,0a4.239,4.239,0,0,0-.445.006A1.729,1.729,0,0,0,1.9,35.365a1.781,1.781,0,0,0,1.82,2.385q7.716.007,15.432,0c.167,0,.335-.009.5.006a.886.886,0,0,1-.02,1.771c-.166.014-.334.005-.5.005H4.46ZM24.9,32.4c-.164-.224-.257-.359-.357-.487q-2.728-3.488-5.457-6.974c-2.531-3.229-5.037-6.478-7.609-9.674a4.153,4.153,0,0,0-4.408-1.456,4.266,4.266,0,0,0-3.329,3.174,5.149,5.149,0,0,0,.452,3.836c.833,1.636,1.718,3.245,2.584,4.864a1.376,1.376,0,0,0,.179.211l3.169-2.322c.779-.57,1.548-1.154,2.342-1.7a.846.846,0,0,1,1.194.184.9.9,0,0,1-.12,1.209,3.3,3.3,0,0,1-.351.273q-2.47,1.811-4.941,3.621c-.161.118-.316.246-.489.381.8,1.493,1.586,2.941,2.341,4.407a.735.735,0,0,0,.766.464c3.9-.015,7.8-.009,11.7-.009H24.9M18.721,60.066c0,.764,0,1.5,0,2.239,0,1.053.25,1.3,1.318,1.3H37.017a3.669,3.669,0,0,0,.5-.01.823.823,0,0,0,.8-.791c.037-.9.011-1.807.011-2.737Z" transform="translate(0 -10.119)" fill="#fff"/><path d="M164.411,3.828c-.683-.756-1.293-1.456-1.93-2.13-.49-.518-.576-1-.2-1.412s.916-.375,1.456.14c.67.639,1.336,1.282,1.9,1.826A31.519,31.519,0,0,1,169.021.8a8.4,8.4,0,0,1,8.095,1.881,14.587,14.587,0,0,1,5.33,10.109,18.043,18.043,0,0,1-.22,5.428c-.189.973-.274,1.088-1.289,1.206a21.246,21.246,0,0,1-12-1.73,12.2,12.2,0,0,1-4.183-3.259c-2.436-2.982-2.537-6.2-.913-9.574.192-.4.426-.778.567-1.034m2.643-.217,13.572,13.038c.03-.217.052-.337.063-.457A15.191,15.191,0,0,0,180.3,11a11.893,11.893,0,0,0-5.776-7.9c-2.541-1.416-5.025-1.048-7.469.513m12,14.207.075-.138L165.836,4.913a7.682,7.682,0,0,0-1.274,4.61,6.948,6.948,0,0,0,2.708,4.931c3.423,2.885,7.526,3.414,11.783,3.363" transform="translate(-137.971 0)" fill="#fff"/><path d="M149.583,197.56c0,1.151,0,2.225,0,3.3,0,.849-.3,1.155-1.122,1.157q-2.451.005-4.9,0c-.8,0-1.1-.309-1.106-1.116,0-1.092,0-2.183,0-3.341h-3.2c-.994,0-1.257-.261-1.258-1.245q0-2.367,0-4.734c0-.837.307-1.148,1.134-1.152,1.09,0,2.18,0,3.322,0,0-1.128,0-2.2,0-3.271,0-.906.288-1.189,1.2-1.19q2.395,0,4.79,0c.833,0,1.134.306,1.137,1.146,0,1.076,0,2.151,0,3.314h1c.817,0,1.634-.009,2.451,0a.9.9,0,0,1,1.007,1q.015,2.562,0,5.124c0,.683-.343,1-1.047,1.006-1.111.007-2.222,0-3.407,0m-1.783,2.647c0-1.134,0-2.227,0-3.319,0-.794.318-1.1,1.121-1.109.613-.005,1.226,0,1.839,0h1.464v-3.566h-3.084c-1.108,0-1.34-.23-1.34-1.33,0-1.032,0-2.065,0-3.087h-3.566c0,1.1,0,2.159,0,3.217,0,.916-.281,1.2-1.192,1.2-1.071,0-2.143,0-3.264,0v3.566h2.407c2.05,0,2.05,0,2.05,2.023v2.407Z" transform="translate(-117.49 -158.334)" fill="#fff"/><path d="M241.8,186.887a.887.887,0,1,1-.889-.885.9.9,0,0,1,.889.885" transform="translate(-204.366 -158.366)" fill="#fff"/></g></svg>