<svg xmlns="http://www.w3.org/2000/svg" xmlns:xlink="http://www.w3.org/1999/xlink" width="52.36" height="56.842" viewBox="0 0 52.36 56.842"><defs><clipPath id="a"><rect width="52.36" height="56.842" fill="#fff"/></clipPath></defs><g clip-path="url(#a)"><path d="M.565,56.842A1.208,1.208,0,0,1,0,55.673c.018-3.219.008-6.439.009-9.658a8.2,8.2,0,0,1,8.434-8.46c3.312-.015,6.624,0,9.935,0,.72,0,.72,0,.72-.737,0-.962.019-1.925-.014-2.886a1.064,1.064,0,0,0-.313-.634c-.31-.314-.683-.565-1.016-.858-.488-.429-.553-.909-.2-1.3.341-.372.8-.367,1.274.044a17.626,17.626,0,0,0,3.888,2.539,7.454,7.454,0,0,0,6.831.058,15.862,15.862,0,0,0,4.489-3.109,9.67,9.67,0,0,0,2.84-6.715c.146-3.324.419-6.645.71-9.961a11.449,11.449,0,0,0-22.653-3.06,19.065,19.065,0,0,0-.006,5.253c.2,2.767.428,5.532.608,8.3a9.05,9.05,0,0,0,.884,3.633.835.835,0,0,1-.308,1.239.848.848,0,0,1-1.177-.5,8.424,8.424,0,0,1-.957-3.219c-.022-.274-.065-.546-.1-.848a5.77,5.77,0,0,1-3.609-1.67,5.528,5.528,0,0,1-1.617-4.968,3.4,3.4,0,0,1,3.31-2.822c.4-.012.8,0,1.247,0a36.394,36.394,0,0,1,.023-4.1A13.071,13.071,0,0,1,24.51.107,4.227,4.227,0,0,0,24.989,0H27.32A30.376,30.376,0,0,1,30.8.865a13.034,13.034,0,0,1,8.431,13.357c-.029.346-.032.694-.051,1.108.405,0,.77-.006,1.134,0a3.446,3.446,0,0,1,3.453,3.406,5.706,5.706,0,0,1-5.044,6.016c-.072.01-.143.028-.231.046-.079.57-.122,1.141-.241,1.7A11.174,11.174,0,0,1,34,32.933,1.647,1.647,0,0,0,33.25,34.5c.064.846.029,1.7.01,2.552-.009.386.13.521.517.509.758-.023,1.517-.015,2.276,0,.646.01,1.029.334,1.028.843s-.383.81-1.035.819c-.22,0-.439,0-.675,0-.109.543-.184,1.052-.313,1.547A9.174,9.174,0,0,1,17.1,39.706c-.05-.362-.163-.5-.547-.5-2.775.016-5.551-.024-8.326.019a6.526,6.526,0,0,0-6.553,6.684q-.006,4.33,0,8.659v.574h7.2q0-1.159,0-2.312c0-.573-.007-1.147,0-1.721.009-.591.3-.925.788-.942a.826.826,0,0,1,.869.929c.014,1.331,0,2.662,0,4.035H41.835c0-1.141,0-2.264,0-3.388,0-.277-.012-.557.014-.832a.814.814,0,0,1,1.6-.109,2.65,2.65,0,0,1,.045.606c0,1.235,0,2.47,0,3.735h7.147c.013-.154.032-.28.032-.406,0-3,.029-6-.008-8.992A6.418,6.418,0,0,0,45.4,39.37a17.491,17.491,0,0,0-2.874-.148c-.777-.021-1.554.006-2.331-.009a.808.808,0,0,1-.879-.8.778.778,0,0,1,.784-.838c2.084.023,4.188-.259,6.242.289A8.018,8.018,0,0,1,52.3,45.252c.1,3.55.048,7.1.021,10.656,0,.312-.3.622-.467.933ZM18.774,39.279c0,3.4,3.533,6.593,7.31,6.658,3.817.067,7.366-3.071,7.523-6.651-1.682-.4-2.006-.827-2.007-2.617,0-.658,0-1.316,0-2.132a9.531,9.531,0,0,1-10.834.015c0,.851,0,1.566,0,2.282,0,1.577-.441,2.126-1.992,2.445M13.321,16.995c-.454,0-.84-.007-1.225,0a1.8,1.8,0,0,0-1.855,1.859,5.349,5.349,0,0,0,.1,1.1,3.872,3.872,0,0,0,3.424,3.067l-.448-6.027m25.713,0L38.6,23.07A4.037,4.037,0,0,0,42.1,18.748,1.776,1.776,0,0,0,40.375,17c-.405-.019-.812,0-1.341,0" transform="translate(-0.001)" fill="#fff"/><path d="M193.96,70.237a7.139,7.139,0,0,1-6.954-8.268A5.468,5.468,0,0,1,197.794,63.7,3.921,3.921,0,0,1,190,62.857a2.381,2.381,0,0,1,4.748.149.844.844,0,0,1-.729.9.8.8,0,0,1-.915-.688c-.02-.09-.025-.184-.05-.272a.708.708,0,0,0-1.4.18,2.262,2.262,0,1,0,4.517-.216,3.817,3.817,0,0,0-4.377-3.592,3.879,3.879,0,0,0-3.191,4.609,5.38,5.38,0,0,0,7,4.264,3.269,3.269,0,0,1,.316-.1.816.816,0,0,1,1.016.544.761.761,0,0,1-.519,1.014c-.807.239-1.639.4-2.46.589" transform="translate(-166.134 -51.211)" fill="#fff"/><path d="M158.014,37.713A8.641,8.641,0,0,1,175.2,36.446a7.137,7.137,0,0,1-.925,4.911.834.834,0,0,1-1.171.4.8.8,0,0,1-.276-1.2c2.091-3.342-.056-8.5-4.465-9.592a6.98,6.98,0,0,0-6.9,11.43c.1.111.209.211.3.33a.791.791,0,0,1-.061,1.107.746.746,0,0,1-1.1.042,6.665,6.665,0,0,1-.915-1.037,8.456,8.456,0,0,1-1.675-5.124" transform="translate(-140.471 -25.846)" fill="#fff"/></g></svg>