<svg xmlns="http://www.w3.org/2000/svg" xmlns:xlink="http://www.w3.org/1999/xlink" width="68.881" height="58.185" viewBox="0 0 68.881 58.185"><defs><clipPath id="a"><rect width="68.881" height="58.185" fill="#fff"/></clipPath></defs><g clip-path="url(#a)"><path d="M0,50.315a1.487,1.487,0,0,1,1.479-.691c.62.039,1.245.008,1.8.008,0-8.726,0-17.376,0-26.027a3.083,3.083,0,0,1,.067-.666.9.9,0,0,1,.964-.762.9.9,0,0,1,.961.766,4.285,4.285,0,0,1,.07.867q.005,11.972,0,23.943c0,1.791.089,1.879,1.914,1.879h7.17c-.667-.571-1.241-1.019-1.766-1.519A12.721,12.721,0,0,1,12.9,29.452a8.86,8.86,0,0,1,2.015-1.439,1.612,1.612,0,0,0,1-1.772c-.069-1.993-.025-3.99-.021-5.985,0-1.109.335-1.437,1.445-1.44,1.005,0,2.011,0,3.037,0a1.257,1.257,0,0,0,.077-.281c0-1.435.016-2.87,0-4.3a.931.931,0,0,0-1.037-1.048q-6.524-.015-13.048,0c-.705,0-1.015.36-1.023,1.128-.014,1.412,0,2.825-.009,4.237,0,.288.043.66-.111.846a1.586,1.586,0,0,1-.967.627c-.3.006-.649-.365-.884-.646-.131-.157-.1-.472-.1-.717-.008-1.39-.013-2.78,0-4.17a3.043,3.043,0,0,1,3.386-3.353c.4,0,.8,0,1.275,0V7.462c0-.381-.007-.762,0-1.143a2.987,2.987,0,0,1,3-3.069c1.3-.041,2.6-.038,3.9,0a2.992,2.992,0,0,1,3.028,3.111c.03,1.322.007,2.645.007,3.968,0,.242,0,.484,0,.809.328,0,.591.02.851,0,2.477-.217,3.973,1.222,3.8,3.819-.085,1.247-.015,2.5-.015,3.865h2.91c1.308,0,1.575.266,1.577,1.575,0,1.273,0,2.547,0,4.046,2.565-3.038,5.833-3.665,9.59-3.375-.847-.674-1.549-1.17-2.18-1.744A14.364,14.364,0,0,1,29.537,7.373c.048-.9.326-1.164,1.248-1.235a14.314,14.314,0,0,1,8.2,1.829c.2.109.385.228.58.338a.868.868,0,0,0,.19.041c.058-.17.13-.346.178-.528A14.409,14.409,0,0,1,44.449.5c.743-.657,1.136-.657,1.862-.015a14.493,14.493,0,0,1,4.546,7.379c.034.13.075.258.12.384.013.037.054.064.01.015,1.356-.551,2.65-1.168,4-1.6a12.484,12.484,0,0,1,5.05-.514c.887.085,1.154.372,1.194,1.283a14.39,14.39,0,0,1-6.536,13.2c-.121.084-.235.177-.515.388,1.031,0,1.87-.009,2.709,0a9.176,9.176,0,0,1,9.1,7.131,6.448,6.448,0,0,1,.2,1.46c.018,4.394.042,8.788.007,13.182a8.73,8.73,0,0,1-2.907,6.429,2.646,2.646,0,0,1-.331.233l.062.184h.82c1.188,0,2.377.026,3.564-.01a1.526,1.526,0,0,1,1.479.693v.673c-.095.2-.2.392-.283.595a9.784,9.784,0,0,1-8.952,6.525c-2.144.137-4.3.049-6.454.06-.134,0-.314.025-.393-.048-.288-.269-.728-.557-.758-.872s.3-.737.583-.992c.176-.16.553-.13.839-.131,1.816-.01,3.632-.018,5.448,0A8.1,8.1,0,0,0,63.211,55,7.7,7.7,0,0,0,66.3,51.708H2.582c.073.152.112.253.167.343a8.1,8.1,0,0,0,7.389,4.071q19.068-.014,38.137,0a1.769,1.769,0,0,1,.975.131,1.42,1.42,0,0,1,.6.978c-.025.316-.448.629-.749.879-.126.1-.389.057-.59.057q-19.237,0-38.473,0a9.907,9.907,0,0,1-8.4-4.128A23.056,23.056,0,0,1,0,50.988v-.673m28.62-.682H29.2q13.786,0,27.572,0a7.147,7.147,0,0,0,7.405-7.417q.007-5.851,0-11.7A7.117,7.117,0,0,0,56.8,23.079c-7.442-.021-14.884-.03-22.326.021a9.252,9.252,0,0,0-3.194.618,6.522,6.522,0,0,0-3.785,3.967,12.786,12.786,0,0,1,5.425,5.677,13.152,13.152,0,0,1,1.118,7.722c.185.018.294.039.4.039,5.963,0,11.925.011,17.888-.015a3.8,3.8,0,0,0,1.613-.373,3.268,3.268,0,0,0,1.753-3.29c-.02-2.771-1.161-3.94-3.91-3.94H35.44a4.477,4.477,0,0,1-.671-.018,1,1,0,0,1-.008-2,3.893,3.893,0,0,1,.6-.019c5.582,0,11.163.008,16.745,0,2.323-.006,4.177.89,5.082,3.05a6.492,6.492,0,0,1-.536,6.532A5.2,5.2,0,0,1,52.1,43.174c-5.694,0-11.388.029-17.081-.028a1.854,1.854,0,0,0-2.13,1.294,13.065,13.065,0,0,1-4.266,5.193M17.945,25.723a7.327,7.327,0,0,0,.008,1.1c.22,1.377-.355,2.124-1.624,2.735a10.6,10.6,0,0,0-5.542,10.524,10.708,10.708,0,1,0,20.066-6.265,10.618,10.618,0,0,0-4.972-4.632,1.473,1.473,0,0,1-.966-1.582c.032-.618.006-1.239.006-1.885ZM45.395,2.442c-5.528,5.2-4.8,13.909.028,18.1a12.568,12.568,0,0,0-.028-18.1M48.113,20.9c7.441-.778,11.549-7.751,11.019-12.752A12.369,12.369,0,0,0,51.754,10.4a.917.917,0,0,0-.445.881,13.2,13.2,0,0,1-1.146,5.884c-.6,1.284-1.361,2.5-2.049,3.74M31.6,8.1a12.424,12.424,0,0,0,11.171,12.78,1.53,1.53,0,0,0-.124-.239,14.913,14.913,0,0,1-3.22-9.547.926.926,0,0,0-.359-.631,11.457,11.457,0,0,0-4.958-2.108c-.827-.139-1.671-.174-2.51-.257M15.8,11.106c0-1.68.023-3.306-.012-4.931-.013-.625-.483-.879-1.06-.886-1.207-.015-2.415-.023-3.622,0-.79.016-1.108.372-1.124,1.189-.014.693,0,1.386,0,2.079,0,.84,0,1.68,0,2.547ZM18.01,23.6h6.865V20.876H18.01Z" transform="translate(0 0)" fill="#fff"/></g></svg>