<svg xmlns="http://www.w3.org/2000/svg" xmlns:xlink="http://www.w3.org/1999/xlink" width="49.351" height="60.396" viewBox="0 0 49.351 60.396"><defs><clipPath id="a"><rect width="49.351" height="60.396" fill="none"/></clipPath></defs><g clip-path="url(#a)"><path d="M11.273,57.225a38.125,38.125,0,0,1-3.884-.033,10.223,10.223,0,0,1-2.611-.769,25.152,25.152,0,0,1-2.3-1.154,13.486,13.486,0,0,1-1.231-.683,2.163,2.163,0,0,1-.522-3.579,8.755,8.755,0,0,1,4.19-2.761q5.952-1.683,11.921-3.3c.491-.133.673-.331.618-.833a13.251,13.251,0,0,1-.009-1.37H16.77q-4.478,0-8.957,0c-1.1,0-1.493-.371-1.813-1.431a3.2,3.2,0,0,1,.27-2.519q3.544-7.1,7-14.237a1.847,1.847,0,0,1,1.479-1.108c2.11-.373,4.209-.81,6.374-1.234,0-.737.02-1.47-.015-2.2-.008-.168-.192-.338-.317-.489-2.707-3.274-3.862-6.919-2.62-11.116a7.555,7.555,0,0,1,1.78-2.973.857.857,0,0,0,.259-.555,4.143,4.143,0,0,1,2.2-4.252,4.1,4.1,0,0,1,4.778.3,4.151,4.151,0,0,1,1.74,3.9.7.7,0,0,0,.129.482c2.762,2.992,2.9,6.428,1.7,10.076a11.1,11.1,0,0,1-2.511,4.237.8.8,0,0,0-.232.463C27.986,20.778,28,21.471,28,22.2c2.174.425,4.31.858,6.453,1.251a1.768,1.768,0,0,1,1.382,1.057q3.586,7.35,7.212,14.68a3.108,3.108,0,0,1-.254,2.917,1.378,1.378,0,0,1-1.373.637c-3.006-.008-6.012,0-9.018,0h-.634c-.043.091-.074.126-.074.161,0,.592-.209,1.337.072,1.733s1.045.424,1.607.584c3.456.98,6.916,1.947,10.372,2.928A10.51,10.51,0,0,1,48.1,50.552a3.1,3.1,0,0,1,.917,3.918,6.55,6.55,0,0,1-3.689,3.73,11.365,11.365,0,0,1-4.894.969c-6.071-.109-12.144-.207-18.212-.438a23.6,23.6,0,0,0-5.372.74c-1.3.247-2.595.556-3.893.834-1.08.231-1.734.028-2.164-.663s-.321-1.373.475-2.416m7.5-46.948c.077-.119.154-.238.233-.356a6.5,6.5,0,0,1,11.02-.283c.072.1.162.178.353.384a7.2,7.2,0,0,0-2.586-4.5,4.864,4.864,0,0,0-5.571-.56,6.274,6.274,0,0,0-3.419,5.308l-.035-.029.005.034M38.605,58.187c.844,0,1.577.033,2.307-.007A10.566,10.566,0,0,0,45.343,57.1a5.607,5.607,0,0,0,2.837-3.156,2.206,2.206,0,0,0-.613-2.556,10.1,10.1,0,0,0-4.305-2.366c-3.459-.971-6.921-1.932-10.374-2.926a10.454,10.454,0,0,0-3.012-.423c-3.844.029-7.689.008-11.534.018a4.17,4.17,0,0,0-1.085.138c-4.015,1.1-8.031,2.207-12.037,3.343a8.157,8.157,0,0,0-3.785,2.5c-.692.761-.561,1.466.3,2.056a8.584,8.584,0,0,0,.9.517c.906.47,1.838.895,2.722,1.4a7.817,7.817,0,0,0,3.514.7,5.118,5.118,0,0,1-.406-5.4l-1.281.108c-.025-.323-.048-.616-.075-.961,1.529-.17,3.006-.343,4.486-.494a9.68,9.68,0,0,1,2.492-.166c3.605.6,7.207,1.246,10.78,2.01,1.4.3,2.463.225,3.365-1a1.7,1.7,0,0,1,1.287-.5c2.589.15,5.173.4,7.761.577a1.813,1.813,0,0,1,1.64.751l1.926-.356v.962c-1.629.291-1.629.291-2.581,1.351,1.481,1.491,1.239,3.15.337,4.947M31.2,38.073c.159-2.287.314-4.506.466-6.726a1.214,1.214,0,0,0-.026-.3c-.441-2.326-.88-4.652-1.337-6.975-.033-.169-.172-.415-.307-.449-.641-.165-1.3-.269-2-.4,0,.561.005,1.05,0,1.538a3.435,3.435,0,1,1-6.869.023c-.007-.505,0-1.011,0-1.558-.666.129-1.274.215-1.86.38a.772.772,0,0,0-.469.477c-.316,1.539-.6,3.085-.872,4.633a19.054,19.054,0,0,0-.434,2.9c-.025,1.241.14,2.486.229,3.729.065.91.14,1.819.212,2.743l3.494.418c.041-.149.062-.206.072-.265q.438-2.628.874-5.255a1.812,1.812,0,0,1,2.074-1.768c.163,0,.327,0,.49,0a1.673,1.673,0,0,1,1.735,1.419c.141.658.235,1.326.347,1.99.217,1.281.433,2.562.657,3.894l3.529-.436m-5.9-5.915-.211.1a.854.854,0,0,0-.035.17q0,3.987,0,7.974c0,.118-.009.307.055.344.607.354,1.225.963,1.849.973,4.824.081,9.65.047,14.475.036.184,0,.487-.078.533-.2.222-.576.559-1.164.243-1.808q-3.64-7.424-7.3-14.84c-.083-.168-.241-.381-.4-.416-1.046-.231-2.1-.418-3.237-.635.23,1.229.434,2.369.66,3.505a27.669,27.669,0,0,0,.851,3.942c.721,2.015,1.64,3.959,2.511,5.917a1.131,1.131,0,0,0,.653.5c.551.175,1.129.268,1.7.4l-.2.927c-.358-.071-.653-.148-.953-.184a9.5,9.5,0,0,0-1.988-.18c-2.155.21-4.3.513-6.451.767-.946.112-1.271-.153-1.421-1.074-.289-1.774-.57-3.549-.892-5.317a3.506,3.506,0,0,0-.453-.893m-7.49-8.306c-1.027.2-1.942.416-2.869.558a.974.974,0,0,0-.813.62c-1.338,2.754-2.693,5.5-4.042,8.247q-1.551,3.16-3.1,6.322a1.37,1.37,0,0,0,1.27,2.16c4.272,0,8.544-.027,12.815.02a4.072,4.072,0,0,0,2.619-.771.8.8,0,0,0,.384-.745c-.015-1.492-.007-2.984-.007-4.476V32.216c-.573.087-.657.485-.725.892-.3,1.793-.587,3.586-.887,5.378a1.008,1.008,0,0,1-1.28.97c-1.258-.143-2.511-.331-3.771-.452-1.551-.148-3.09-.64-4.668-.182-.342.1-.7.143-1.088.22l-.179-.942c.589-.125,1.14-.276,1.7-.349a.8.8,0,0,0,.7-.572c.72-1.711,1.475-3.409,2.181-5.126a10.452,10.452,0,0,0,.594-1.919c.409-2.057.771-4.123,1.169-6.281m6.808-3.442a4.171,4.171,0,0,0,2.851-1.448,11.249,11.249,0,0,0,2.847-5.805,1.1,1.1,0,0,0,.008-.426,6.129,6.129,0,0,0-5.345-4.994c-3.068-.228-5.558,2.277-6.174,5.227a.607.607,0,0,0,0,.243,10.829,10.829,0,0,0,3.332,6.2,3.754,3.754,0,0,0,2.479,1M11.684,56.276l.016.136c3.915-.464,7.828-.947,11.746-1.386a89.418,89.418,0,0,0,14-2.7c.226-.063.4-.31.6-.471a2.079,2.079,0,0,0-.649-.307c-2.2-.173-4.416-.211-6.6-.512a2.656,2.656,0,0,0-2.857,1.033,1.67,1.67,0,0,1-1.812.59q-4.756-.9-9.515-1.777A17.72,17.72,0,0,0,13.6,50.4a26.8,26.8,0,0,0-3.593.379.7.7,0,0,0-.482.289,4.34,4.34,0,0,0-.186,4.217c.415.8.907,1.271,1.856,1.029a2.7,2.7,0,0,1,.489-.036m16.768,1.715c3.008.07,5.746.137,8.484.189a.889.889,0,0,0,.6-.158,3.1,3.1,0,0,0-.046-4.176.868.868,0,0,0-.975-.258,109.59,109.59,0,0,1-16.7,2.891,29.888,29.888,0,0,0-7.592,1.541c-.449.179-.805.385-.663.917s.583.551,1.041.451c1.356-.3,2.706-.627,4.07-.878a20.369,20.369,0,0,1,4.877-.781c2.387.135,4.779.185,6.9.261m-6.3-37.265a.693.693,0,0,0-.041.163c0,1.329-.021,2.659,0,3.987a2.442,2.442,0,0,0,2.264,2.4,2.356,2.356,0,0,0,2.576-2.036c.118-1.492.028-3,.028-4.515-2.4.909-2.452.909-4.829,0m8.518,22.015c-.926,0-1.786-.052-2.637.013a3.951,3.951,0,0,1-3.017-.871.621.621,0,0,0-.915,0,3.9,3.9,0,0,1-2.958.868c-.885-.072-1.781-.015-2.675-.015v1.922h12.2ZM27.979,4.4a3.366,3.366,0,0,0-1.736-2.929,3.238,3.238,0,0,0-3.588.142,3.31,3.31,0,0,0-1.5,2.8A6.219,6.219,0,0,1,27.979,4.4m4.664,29.148-.14.011-.3,4.381,2.2-.275-1.763-4.117m-16.022,0-.125-.02-1.771,4.143,2.2.265-.3-4.388" transform="translate(0 0)" fill="#fff"/></g></svg>