<svg xmlns="http://www.w3.org/2000/svg" xmlns:xlink="http://www.w3.org/1999/xlink" width="57.055" height="59.312" viewBox="0 0 57.055 59.312"><defs><clipPath id="a"><rect width="57.055" height="59.312" fill="#fff"/></clipPath></defs><g clip-path="url(#a)"><path d="M29.686,0c.41.091.823.17,1.229.275,2.668.685,4.293,2.706,4.677,5.68a11.068,11.068,0,0,1-2.354,8.509.891.891,0,0,0-.209.45,3.468,3.468,0,0,0,2.089,3.378c.512.224,1.026.443,1.547.645A8.92,8.92,0,0,1,41.01,21.86c.559-.462,1.094-.869,1.576-1.331.11-.106.077-.413.038-.613a2.83,2.83,0,0,1,1.055-2.937,2.75,2.75,0,0,1,3.045-.367,2.809,2.809,0,0,1,1.715,2.61,2.923,2.923,0,0,1-4.119,2.736.665.665,0,0,0-.854.118c-.456.415-1.153.712-1.354,1.217-.177.445.179,1.107.308,1.67.723,3.155,1.441,6.311,2.184,9.461a3.432,3.432,0,0,0,.484,1.04q4.955,7.646,9.935,15.277a1.625,1.625,0,0,0,.528.5,2.8,2.8,0,0,1,.825,4.313,10,10,0,0,1-6.437,3.65c-.15.023-.3.072-.443.109H47.41a3.738,3.738,0,0,0-.435-.116q-3.092-.448-6.185-.887c-3.9-.553-7.783-1.181-11.692-1.612a16.582,16.582,0,0,0-3.95.366c-3.975.542-7.946,1.111-11.917,1.68-1.2.172-2.391.378-3.585.568h-2.2c-1.027-.306-2.081-.543-3.074-.934A9.035,9.035,0,0,1,.754,55.65a2.811,2.811,0,0,1,.85-4.457,1.333,1.333,0,0,0,.448-.423C5.384,45.641,8.736,40.525,12,35.357a9.789,9.789,0,0,0,.867-2.73c.271-1.024.48-2.065.721-3.1.154-.662.563-.994,1.069-.884.546.12.786.594.628,1.284-.373,1.635-.729,3.275-1.148,4.9a5.312,5.312,0,0,1-.682,1.519Q8.383,44.23,3.262,52.084a1.922,1.922,0,0,1-.783.62,1.078,1.078,0,0,0-.447,1.756A8.018,8.018,0,0,0,9.469,57.5c6.274-.811,12.527-1.778,18.8-2.606a10.756,10.756,0,0,1,2.8.285c5.539.78,11.067,1.644,16.617,2.332a7.963,7.963,0,0,0,7.291-3c.609-.713.375-1.449-.507-1.834a1.34,1.34,0,0,1-.573-.447c-3.35-5.14-6.657-10.308-10.045-15.422A13.393,13.393,0,0,1,42.326,32.3c-.618-2.546-1.188-5.1-1.792-7.718a4.207,4.207,0,0,0-.4.255c-2.858,2.359-5.705,4.732-8.582,7.069-.39.316-.247.634-.237.974A2.8,2.8,0,1,1,27.866,30.3a2.878,2.878,0,0,1,2.074.283.6.6,0,0,0,.534-.027c3.061-2.506,6.108-5.029,9.2-7.583A5.391,5.391,0,0,0,37.5,21.19c-.828-.368-1.654-.747-2.505-1.052a5.332,5.332,0,0,1-3.7-4.78,2.356,2.356,0,0,1,.562-1.987A8.943,8.943,0,0,0,33.7,5.33a4.138,4.138,0,0,0-3.883-3.478,12.247,12.247,0,0,0-2.821.023c-2.225.282-3.506,1.784-3.808,4.149a9.541,9.541,0,0,0,2.334,7.782,2.3,2.3,0,0,1,.292,1.053,2.061,2.061,0,0,1-.072.512,5.209,5.209,0,0,1-3.695,4.772c-.78.277-1.539.617-2.295.956a5.652,5.652,0,0,0-3.409,4.24A7.287,7.287,0,0,1,16.1,26.35a.805.805,0,0,1-1,.568.852.852,0,0,1-.665-1,7.827,7.827,0,0,1,5.142-6.64c.773-.3,1.532-.633,2.293-.96a3.432,3.432,0,0,0,2.153-3.39,1.1,1.1,0,0,0-.269-.543,11,11,0,0,1-2.075-9.611A5.8,5.8,0,0,1,26.871.117c.168-.023.332-.077.5-.117ZM45.47,20.488a1.207,1.207,0,1,0-1.178-1.253,1.234,1.234,0,0,0,1.178,1.253M29.581,33a1.054,1.054,0,1,0-1.035,1.072A1.038,1.038,0,0,0,29.581,33" transform="translate(0)" fill="#fff"/><path d="M53,204.059a33.887,33.887,0,0,1-1.177,7.3c-.133.641-.264,1.284-.425,1.919a3.916,3.916,0,0,1-3.025,3.094c-3.416.79-6.846,1.523-10.271,2.275a.879.879,0,0,1-1.078-.457c-.232-.46-.016-.806.3-1.135,3.346-3.5,6.681-7.015,10.041-10.5a5.731,5.731,0,0,0,1.379-2.3c.646-2.038,1.333-4.062,2.012-6.089.223-.665.732-.976,1.212-.677a1.252,1.252,0,0,1,.533.807c.2,1.917.34,3.841.5,5.763m-1.948-1.252c-.221.652-.474,1.295-.656,1.957a6.958,6.958,0,0,1-1.821,3.036c-2.594,2.674-5.152,5.382-7.723,8.078-.117.123-.224.255-.419.479,2.484-.544,4.847-1.075,7.216-1.575a2.529,2.529,0,0,0,2.124-2.152c.211-1.039.443-2.073.682-3.106a18.075,18.075,0,0,0,.6-6.716" transform="translate(-31.226 -166.889)" fill="#fff"/><path d="M241.263,216.482c-.168-.2-.258-.322-.36-.43-2.557-2.682-5.1-5.38-7.685-8.034a7.336,7.336,0,0,1-1.944-3.226,11.615,11.615,0,0,0-.69-1.847c0,1.037-.047,2.078.016,3.111a18.913,18.913,0,0,0,.367,2.222c.121.659-.109,1.124-.629,1.238s-.922-.219-1.078-.866a22.2,22.2,0,0,1-.3-7.652c.087-.805.145-1.614.211-2.422.043-.524.209-.974.8-1.044s.85.329,1.014.83c.7,2.123,1.376,4.253,2.127,6.358a4.862,4.862,0,0,0,.994,1.66c3.386,3.6,6.811,7.16,10.209,10.747a1.57,1.57,0,0,1,.44.887c.035.581-.532.894-1.226.743q-3.446-.751-6.89-1.512c-1-.219-2-.434-2.993-.656a4.081,4.081,0,0,1-3.359-3.325c-.074-.339-.169-.675-.212-1.018a.817.817,0,0,1,.646-.958.833.833,0,0,1,1.028.616c.118.386.184.788.282,1.18a2.172,2.172,0,0,0,1.638,1.708c2.49.586,4.994,1.114,7.6,1.689" transform="translate(-193.432 -167.016)" fill="#fff"/><path d="M172.186,121.863a2.794,2.794,0,1,1-2.763-2.81,2.785,2.785,0,0,1,2.763,2.81m-2.807,1.044a1.05,1.05,0,0,0,1.067-1.048,1.054,1.054,0,0,0-2.108-.025,1.051,1.051,0,0,0,1.041,1.073" transform="translate(-140.865 -100.664)" fill="#fff"/><path d="M166.6,275.062a2.795,2.795,0,1,1,2.789,2.786,2.787,2.787,0,0,1-2.789-2.786m1.741-.069a1.055,1.055,0,0,0,2.106.12,1.055,1.055,0,1,0-2.106-.12" transform="translate(-140.865 -230.2)" fill="#fff"/><path d="M172.185,45.144a2.795,2.795,0,1,1-2.791-2.795,2.806,2.806,0,0,1,2.791,2.795m-1.741.036a1.055,1.055,0,1,0-2.109-.051,1.055,1.055,0,1,0,2.109.051" transform="translate(-140.863 -35.808)" fill="#fff"/></g></svg>