<svg xmlns="http://www.w3.org/2000/svg" xmlns:xlink="http://www.w3.org/1999/xlink" width="46.956" height="53.443" viewBox="0 0 46.956 53.443"><defs><clipPath id="a"><rect width="46.956" height="53.443" fill="none"/></clipPath></defs><g clip-path="url(#a)"><path d="M.553,53.443c-.066-.04-.127-.078-.178-.115a.7.7,0,0,1-.362-.746.7.7,0,0,1,.57-.63,1.421,1.421,0,0,1,.327-.025h.237l10.668,0,8.082,0a6.1,6.1,0,0,0,3.21-.891q1.48-.9,2.958-1.8l1.365-.831q.4-.246.809-.489c.614-.37,1.249-.752,1.869-1.145a2.325,2.325,0,0,0-1.223-4.333,2.43,2.43,0,0,0-.474.047,3.52,3.52,0,0,0-1.048.431q-1.4.806-2.787,1.622-1.211.707-2.423,1.411a7.517,7.517,0,0,1-3.786,1.007q-1.352.006-2.7.005-1.662,0-3.324,0c-.36,0-.964-.1-.968-.76a.679.679,0,0,1,.178-.5,1.086,1.086,0,0,1,.772-.252H12.9l1.5,0c.62,0,1.095,0,1.538-.009a3.342,3.342,0,0,0,1.2-.219,2.465,2.465,0,0,0-.957-4.742c-.645-.007-1.335-.01-2.239-.01l-2.2,0h-.929a7.518,7.518,0,0,0-3.421.825c-1.925.974-3.833,1.926-6.1,3.056a1.3,1.3,0,0,1-.568.15.667.667,0,0,1-.634-.4c-.3-.608.263-.974.52-1.1q1.454-.73,2.911-1.457l2.043-1.021c.272-.136.541-.275.82-.419l.4-.205.843-.432-.51-.8-.1-.161c-.07-.112-.131-.208-.2-.3a19.609,19.609,0,0,1-3.452-13.51A19.887,19.887,0,0,1,13.3,9.245a1.908,1.908,0,0,0,.972-1.331,3.726,3.726,0,0,1,1.834-2.58l1.719-1.046c1.755-1.069,3.571-2.174,5.364-3.242A8.938,8.938,0,0,1,24.709.373,9.477,9.477,0,0,1,25.687.1c.128-.031.255-.063.382-.1H46.405c.066.04.128.078.178.115a.72.72,0,0,1,.361.763.755.755,0,0,1-.563.614,2.032,2.032,0,0,1-.374.024h-.2l-10.415,0-8.333,0a6.089,6.089,0,0,0-3.209.894l-3.5,2.124q-.517.314-1.035.626c-.811.489-1.649,1-2.468,1.51a2.349,2.349,0,0,0-.97,2.932,2.41,2.41,0,0,0,2.664,1.354,3.527,3.527,0,0,0,1.047-.429c1.339-.773,2.7-1.566,4.008-2.332l1.158-.676a7.374,7.374,0,0,1,3.675-1.027c.8-.009,1.652-.013,2.669-.013q1.239,0,2.478.005l1.09,0c.214,0,.911.057.916.758a.68.68,0,0,1-.205.528A1.022,1.022,0,0,1,34.689,8l-.813,0h-1.4c-.59,0-1.041,0-1.461.008a3.356,3.356,0,0,0-1.2.216,2.466,2.466,0,0,0,.951,4.744q.529.007,1.059.006t1.064,0q.528,0,1.056,0c.65,0,1.177.006,1.658.018q.117,0,.232,0a8.8,8.8,0,0,0,4.167-1.049c1.728-.9,3.513-1.78,5.239-2.629l.514-.253a1.045,1.045,0,0,1,.462-.116.717.717,0,0,1,.72.633c.09.479-.351.758-.544.856q-1.548.782-3.1,1.553l-1.658.828c-.324.162-.647.327-.98.5l-1.328.674.513.8.1.164c.069.109.128.2.19.3a19.761,19.761,0,0,1,3.246,15,19.938,19.938,0,0,1-9.766,14,1.879,1.879,0,0,0-.869,1.122,4.186,4.186,0,0,1-2.071,2.861c-.814.479-1.63.979-2.418,1.462-.576.352-1.151.7-1.73,1.052-.328.2-.656.4-.972.6a12.81,12.81,0,0,1-4.625,2.108ZM14.591,38.932c.55,0,1.038,0,1.492.012a3.931,3.931,0,0,1,4.011,3.238,6.221,6.221,0,0,1,.074,1.051c0,.2.007.407.018.623l.071,1.345,1.191-.627.143-.074c.114-.058.231-.118.353-.189q.8-.465,1.6-.934c1.087-.637,2.21-1.3,3.323-1.922a3.974,3.974,0,0,1,5.02.83,2.843,2.843,0,0,0,.252.237l.073.064.486.44.554-.35.174-.108c.131-.08.254-.157.382-.245A18.388,18.388,0,0,0,42.173,26.87a17.94,17.94,0,0,0-4.014-11.725,1.738,1.738,0,0,0-1.265-.653l-.644,0c-.631,0-1.262.006-1.893.011s-1.251.011-1.877.011-1.157-.006-1.656-.017a3.957,3.957,0,0,1-3.963-3.234,6.242,6.242,0,0,1-.073-1.053c0-.2-.006-.408-.018-.625L26.7,8.228l-1.2.641-.16.084c-.123.064-.25.131-.379.206q-.791.46-1.579.924c-1.062.624-2.161,1.268-3.248,1.883a4.178,4.178,0,0,1-2.072.567,4.063,4.063,0,0,1-3-1.378,2.743,2.743,0,0,0-.255-.239l-.072-.062-.485-.435-.551.348-.177.11c-.13.08-.252.155-.379.243A18.378,18.378,0,0,0,4.825,25.564,18.126,18.126,0,0,0,8.8,38.294a1.733,1.733,0,0,0,1.267.657l.7,0c.64,0,1.281-.005,1.922-.01s1.272-.01,1.908-.01" transform="translate(0)" fill="#fff"/></g></svg>