<svg xmlns="http://www.w3.org/2000/svg" width="20.137" height="22.152" viewBox="0 0 20.137 22.152"><g transform="translate(-3.5 -2)"><path d="M13.568,2a1,1,0,0,1,.614.211l9.068,7.053a1,1,0,0,1,.386.789V21.137a3.019,3.019,0,0,1-3.015,3.015H6.515A3.019,3.019,0,0,1,3.5,21.137V10.053a1,1,0,0,1,.386-.789l9.068-7.053A1,1,0,0,1,13.568,2Zm8.068,8.542L13.568,4.267,5.5,10.542V21.137a1.016,1.016,0,0,0,1.015,1.015H20.622a1.016,1.016,0,0,0,1.015-1.015Z" fill="#fff"/><path d="M19.546,29.076a1,1,0,0,1-1-1V19H14.5v9.076a1,1,0,1,1-2,0V18a1,1,0,0,1,1-1h6.046a1,1,0,0,1,1,1V28.076A1,1,0,0,1,19.546,29.076Z" transform="translate(-2.954 -4.924)" fill="#fff"/></g></svg>