<svg xmlns="http://www.w3.org/2000/svg" viewBox="0 0 483.45 206.45"><defs><style>.a{fill:#ebb502;}.b{fill:#0e025c;}</style></defs><rect class="a" width="162.64" height="206.45"/><path class="b" d="M132.68,143.42a8.79,8.79,0,0,1-5.56-1.95,8.46,8.46,0,0,1-3-5.31L115,60.2h-1.06L81.6,131.52l-33-71.32H47.45L38.64,136h0a8,8,0,0,1-3,5.5A8.91,8.91,0,0,1,30,143.42H28.07v1.18H51v-1.07H49.23A4.15,4.15,0,0,1,46,141.94a5.29,5.29,0,0,1-1.35-3.49V138l5.15-57.26L80,146.25h1.18a29.83,29.83,0,0,1,1.3-5.26q.94-2.78,2.72-6.79L109.94,79l5.36,59.07v.37a5.39,5.39,0,0,1-1.3,3.49,4.08,4.08,0,0,1-3.31,1.59h-1.77v1.07h25.65v-1.18Z"/><path class="a" d="M257.68,105.49a4.31,4.31,0,0,1-1.56-2.74l-4.74-39.3h-.55l-16.7,36.9-17.06-36.9h-.61l-4.55,39.2h0a4.19,4.19,0,0,1-1.53,2.84,4.66,4.66,0,0,1-2.94,1h-1v.61H218.3v-.55h-.92a2.14,2.14,0,0,1-1.68-.82,2.73,2.73,0,0,1-.7-1.81v-.21l2.66-29.63L233.28,108h.61a15.37,15.37,0,0,1,.67-2.72c.33-1,.8-2.13,1.41-3.52l12.82-28.55,2.78,30.56h0v.18a2.81,2.81,0,0,1-.68,1.81,2.11,2.11,0,0,1-1.71.82h-.92v.55h13.27v-.61h-1A4.56,4.56,0,0,1,257.68,105.49Z"/><path class="a" d="M303.24,105.61a6.12,6.12,0,0,1-2.44-3h0l-16.38-39.2h-.55a6,6,0,0,1-.34,1.53c-.23.69-.49,1.4-.8,2.14s-.68,1.61-1.13,2.63l-14,33.17a6.34,6.34,0,0,1-2.34,2.69,5.58,5.58,0,0,1-2.9.89h-.55v.61h12.29v-.61h-.55a2.58,2.58,0,0,1-1.44-.46,2.46,2.46,0,0,1-1-1.31,3,3,0,0,1,.05-1.85l4.16-10.63h16.5l4,10.55a2.56,2.56,0,0,1-.28,2.69,2.79,2.79,0,0,1-2.08,1h-.55v.61h13.76v-.61h-.49A5.79,5.79,0,0,1,303.24,105.61ZM276.07,90.42l7.69-19.64,7.4,19.64Z"/><path class="a" d="M315,64.3h-8.5v.61h.79A3.69,3.69,0,0,1,310,66.05a4,4,0,0,1,1.2,2.72v38.16a14.19,14.19,0,0,1-3.52,9.33,9,9,0,0,1-3.64,2.53v.55a9.94,9.94,0,0,0,4.34-1A11.32,11.32,0,0,0,312,115.8a11.91,11.91,0,0,0,2.38-3.89,13.32,13.32,0,0,0,.86-4.8V68.77a3.94,3.94,0,0,1,1.19-2.72,3.7,3.7,0,0,1,2.72-1.14h.8V64.3H315Z"/><path class="a" d="M352.37,101.36a8.6,8.6,0,0,1-3.33,2.85,12,12,0,0,1-5.29,1H335V86.93h10.34a2.8,2.8,0,0,1,2.08.89,2.92,2.92,0,0,1,.85,2.11v.91h.62V81.18h-.62V82a2.94,2.94,0,0,1-.85,2.11,3,3,0,0,1-2.08.95H335V66.2h12.77a3.61,3.61,0,0,1,2.1,1.07,3.53,3.53,0,0,1,1,2.54v1.1h.61V63.2a8.62,8.62,0,0,1-1.84.49c-.85.16-1.78.31-2.78.43a23.93,23.93,0,0,1-2.84.18H326.32l.06.61h.74a3.8,3.8,0,0,1,2.75,1.14A3.67,3.67,0,0,1,331,68.77v33.88a3.94,3.94,0,0,1-1.19,2.72,3.73,3.73,0,0,1-2.72,1.13h-.8v.61H351.7l3.55-9.91h-.61A22.48,22.48,0,0,1,352.37,101.36Z"/><path class="a" d="M378.86,89.07l-12-11.13a7.2,7.2,0,0,1-1.93-2.9,8.71,8.71,0,0,1-.52-2.72,6.79,6.79,0,0,1,2.08-4.93,7.29,7.29,0,0,1,5.44-2.11,7.42,7.42,0,0,1,4.9,1.68,5.7,5.7,0,0,1,2,4.62h.55V64.06h-2.6l-.73-.15a22,22,0,0,0-2.2-.34,20.05,20.05,0,0,0-2.11-.12,11,11,0,0,0-5.9,1.5,9.68,9.68,0,0,0-3.64,3.88,10.66,10.66,0,0,0-1.22,5,11.28,11.28,0,0,0,.73,3.82,9.56,9.56,0,0,0,2.57,3.77L376,92.25a6.84,6.84,0,0,1,1.77,2.48,8.09,8.09,0,0,1,.62,3.21,7.46,7.46,0,0,1-2.42,5.84,9.11,9.11,0,0,1-5.78,2.35,8.65,8.65,0,0,1-4.8-1.07,7.62,7.62,0,0,1-3.21-3.51,10.21,10.21,0,0,1-.8-5.45h-.55a19.73,19.73,0,0,0-.67,3,21.11,21.11,0,0,0-.24,3.09,13.75,13.75,0,0,0,.18,2.44,9.1,9.1,0,0,0,3.09,2,16.69,16.69,0,0,0,3.85,1.07,22.5,22.5,0,0,0,3.46.31,11.09,11.09,0,0,0,8.34-3.18,11.35,11.35,0,0,0,3.09-8.26,12.64,12.64,0,0,0-.61-3.79A8.54,8.54,0,0,0,378.86,89.07Z"/><path class="a" d="M414.27,64.06a24,24,0,0,1-2.85.18H390.94a24.27,24.27,0,0,1-2.82-.18c-1-.12-1.94-.27-2.78-.43a10.72,10.72,0,0,1-1.86-.49v7.71l.61-.06v-1a3.46,3.46,0,0,1,1-2.57,3.69,3.69,0,0,1,2.56-1.1h11.5v36.57a3.94,3.94,0,0,1-1.19,2.72,3.73,3.73,0,0,1-2.72,1.13h-.8v.61h13.4v-.61h-.8a3.72,3.72,0,0,1-2.72-1.13,3.9,3.9,0,0,1-1.19-2.72V66.08h11.49a3.76,3.76,0,0,1,2.54,1.1,3.45,3.45,0,0,1,1.07,2.57v1l.61.06V63.14a8.94,8.94,0,0,1-1.83.49C416.19,63.79,415.27,63.94,414.27,64.06Z"/><path class="a" d="M430.64,64.3h-8.5v.61h.79a3.69,3.69,0,0,1,2.72,1.14,3.91,3.91,0,0,1,1.2,2.72v33.88a3.91,3.91,0,0,1-1.2,2.72,3.72,3.72,0,0,1-2.72,1.13h-.79v.61h13.39v-.61h-.79a3.74,3.74,0,0,1-2.73-1.13,3.94,3.94,0,0,1-1.19-2.72V68.77A3.94,3.94,0,0,1,432,66.05a3.71,3.71,0,0,1,2.73-1.14h.79V64.3h-4.89Z"/><path class="a" d="M480.85,89.26a21.75,21.75,0,0,1-3.18,9.93,14.54,14.54,0,0,1-6.21,5.32,19.85,19.85,0,0,1-8,1.62,16.69,16.69,0,0,1-9-2.69,17.18,17.18,0,0,1-6.06-7.15,24.89,24.89,0,0,1-2.17-10.7,24.71,24.71,0,0,1,2.17-10.68,16.29,16.29,0,0,1,15.44-9.63,17,17,0,0,1,9.67,2.78,13.31,13.31,0,0,1,5.5,8.17h.55l-1.22-8.62a26,26,0,0,0-14.5-4.16,23.69,23.69,0,0,0-11.71,2.78A19.46,19.46,0,0,0,444.34,74a23.64,23.64,0,0,0-2.76,11.65,23.72,23.72,0,0,0,2.79,11.77,19.55,19.55,0,0,0,7.73,7.73A23.36,23.36,0,0,0,463.42,108a21.92,21.92,0,0,0,7.49-1.19,18.84,18.84,0,0,0,5.69-3.24,19.12,19.12,0,0,0,4-4.68l.74-9.6Z"/><path class="a" d="M208.38,129h-.07a1.12,1.12,0,0,0-.47-.88,1.68,1.68,0,0,0-1.09-.36h-.32v-.23h1.95Zm0,10.81v1.46h-1.95V141h.32a1.68,1.68,0,0,0,1.09-.36,1.16,1.16,0,0,0,.47-.87Zm1.37-12.28v13.74h-1.44V127.53Zm-.07,1.47v-1.47h1.95l0,.23h-.3a1.68,1.68,0,0,0-1.09.36,1.18,1.18,0,0,0-.47.88Zm0,10.81h.07a1.23,1.23,0,0,0,.47.87,1.68,1.68,0,0,0,1.09.36h.3l0,.23h-1.95Z"/><path class="a" d="M215.64,139.85v1.42h-1.72V141h.39a1.24,1.24,0,0,0,.89-.34,1.1,1.1,0,0,0,.37-.85Zm0-12.66,1,1.28,0,12.8h-1V130.05a23.86,23.86,0,0,0-.21-2.86Zm0,0,12.69,11.95.23,2.45-12.69-12Zm1,12.66a1.11,1.11,0,0,0,.38.85,1.25,1.25,0,0,0,.88.34h.39v.23h-1.72v-1.42ZM227.5,129a1.13,1.13,0,0,0-.39-.84,1.25,1.25,0,0,0-.89-.35h-.39v-.23h1.72V129Zm1-1.42v11.13c0,.49,0,1,.05,1.41s.08,1,.16,1.52h-.21l-1-1.21V127.53Zm-.07,1.42v-1.42h1.72v.23h-.39a1.26,1.26,0,0,0-.88.35,1.09,1.09,0,0,0-.38.84Z"/><path class="a" d="M236.57,127.21c.43,0,.8,0,1.12.05s.6.06.84.1a5.84,5.84,0,0,1,.62.14l.47.15,0,2.26h-.28a1.81,1.81,0,0,0-.64-1.47,3,3,0,0,0-2-.54,3.11,3.11,0,0,0-2,.63,1.84,1.84,0,0,0-.79,1.54,2.62,2.62,0,0,0,.08.61,2.23,2.23,0,0,0,.28.61,2.89,2.89,0,0,0,.54.59l4.62,3.58a2.61,2.61,0,0,1,.78,1.11,4.28,4.28,0,0,1,.28,1.34,3.19,3.19,0,0,1-.53,1.85,3.91,3.91,0,0,1-1.48,1.34,4.28,4.28,0,0,1-2.05.49,9.22,9.22,0,0,1-1.43-.11,7.67,7.67,0,0,1-1.43-.36,3.7,3.7,0,0,1-1.1-.6,3.75,3.75,0,0,1-.07-.81,7.9,7.9,0,0,1,.08-1.05,6.18,6.18,0,0,1,.22-1H233a3.1,3.1,0,0,0,.3,1.76,2.52,2.52,0,0,0,1.15,1.11,3.77,3.77,0,0,0,1.76.36,3.56,3.56,0,0,0,2.23-.72,2.22,2.22,0,0,0,.82-1.8,2.48,2.48,0,0,0-.2-1,2.44,2.44,0,0,0-.63-.84L233.89,133a2.77,2.77,0,0,1-.87-1.22,3.92,3.92,0,0,1-.23-1.26,3,3,0,0,1,.51-1.69,3.61,3.61,0,0,1,1.36-1.2A4,4,0,0,1,236.57,127.21Zm3,.21,0,.41H238v-.41Z"/><path class="a" d="M244.45,127.53v1.22h0a1,1,0,0,0-.33-.7,1.1,1.1,0,0,0-.77-.29H243v-.23Zm1.42,0v8.66a5.11,5.11,0,0,0,1.13,3.5,3.93,3.93,0,0,0,3.11,1.29,4.69,4.69,0,0,0,3.42-1.22,4.42,4.42,0,0,0,1.25-3.32v-8.91h1.05v8.91a4.87,4.87,0,0,1-1.52,3.77,7,7,0,0,1-8.36,0,4.78,4.78,0,0,1-1.55-3.76v-8.93Zm1.44,0v.23H247a1.15,1.15,0,0,0-.77.29.89.89,0,0,0-.33.7h-.05v-1.22Zm7.51,0v1.22h0a.91.91,0,0,0-.32-.7,1.16,1.16,0,0,0-.78-.29h-.35v-.23Zm2.45,0v.23h-.34a1.13,1.13,0,0,0-.76.29,1,1,0,0,0-.34.7h0v-1.22Z"/><path class="a" d="M261.26,129h-.05a1.15,1.15,0,0,0-.39-.87,1.28,1.28,0,0,0-.91-.35h-.32v-.23h1.94Zm0,10.83.27,1.46h-1.94V141h.32a1.28,1.28,0,0,0,1.3-1.23Zm1.4-12.28v13.74h-1.47V127.53Zm-.07,12.28h.07a1.28,1.28,0,0,0,.38.87,1.27,1.27,0,0,0,.92.36h.3l0,.23h-2Zm2.74-12.28a7.19,7.19,0,0,1,1.94.25,4.42,4.42,0,0,1,1.47.74,3.22,3.22,0,0,1,.92,1.16,3.57,3.57,0,0,1,.32,1.56,3.69,3.69,0,0,1-.45,1.79,3.76,3.76,0,0,1-1.28,1.35,4.21,4.21,0,0,1-1.84.64,2.93,2.93,0,0,1,.91.71,11.32,11.32,0,0,1,.88,1.08c.39.53.75,1,1.06,1.38s.62.76.93,1.11.61.66.88.92a3.35,3.35,0,0,0,.87.61A2.65,2.65,0,0,0,273,141v.23h-.71a5.56,5.56,0,0,1-2.07-.32,4,4,0,0,1-1.32-.79,9,9,0,0,1-.87-.9c-.06-.08-.2-.27-.42-.59l-.73-1-.71-1-.38-.54a5.91,5.91,0,0,0-1.06-1.06,1.94,1.94,0,0,0-1.26-.47v-.23h1.31c.43,0,.85-.05,1.28-.11a2.42,2.42,0,0,0,1.2-.49,2.62,2.62,0,0,0,.88-1.37,2.41,2.41,0,0,0,.14-.6,3.34,3.34,0,0,0,0-.71,2.89,2.89,0,0,0-.24-1.14,2.45,2.45,0,0,0-.61-.87,3,3,0,0,0-1-.58,4,4,0,0,0-1.24-.22c-.72,0-1.34,0-1.88,0a4,4,0,0,1-.8,0,1.38,1.38,0,0,0-.06-.19c0-.12-.09-.29-.17-.52Z"/><path class="a" d="M276.21,139.6a1,1,0,0,0,.07,1.07,1,1,0,0,0,.74.37h.18v.23h-4.38V141H273a1.77,1.77,0,0,0,1-.33,2.54,2.54,0,0,0,.87-1.11Zm4.42-12.39.16,1.58-5.24,12.41h-1.44l5.42-11.63.43-.95c.11-.27.22-.53.31-.79a3.33,3.33,0,0,0,.16-.62Zm2.71,8.73v.68h-6.07v-.68Zm-2.71-8.73,6.3,13.93h-1.81l-4.88-11.89Zm3.87,12.39h1.74a2.52,2.52,0,0,0,.85,1.11,1.79,1.79,0,0,0,1,.33h.19v.23h-4.7V141h.18a.92.92,0,0,0,.71-.37A1,1,0,0,0,284.5,139.6Z"/><path class="a" d="M290.89,139.85v1.42h-1.72V141h.39a1.26,1.26,0,0,0,.9-.34,1.13,1.13,0,0,0,.36-.85Zm0-12.66,1,1.28,0,12.8h-1V130.05a23.59,23.59,0,0,0-.2-2.86Zm0,0,12.68,11.95.23,2.45-12.68-12Zm1,12.66a1.1,1.1,0,0,0,.37.85,1.26,1.26,0,0,0,.88.34h.39v.23h-1.71v-1.42Zm10.9-10.9a1.21,1.21,0,0,0-.39-.84,1.29,1.29,0,0,0-.9-.35h-.39v-.23h1.72V129Zm1-1.42v11.13c0,.49,0,1,.05,1.41s.08,1,.16,1.52h-.21l-1-1.21V127.53Zm-.07,1.42v-1.42h1.72v.23H305a1.27,1.27,0,0,0-.88.35,1.09,1.09,0,0,0-.38.84Z"/><path class="a" d="M321.6,135.5l-.25,3.14a5.45,5.45,0,0,1-1.56,1.58,7.61,7.61,0,0,1-2.17,1,9,9,0,0,1-2.57.35,8.89,8.89,0,0,1-4-.89,6.19,6.19,0,0,1-2.62-2.47,8.56,8.56,0,0,1,0-7.68,6.25,6.25,0,0,1,2.62-2.47,8.76,8.76,0,0,1,4-.87,11.42,11.42,0,0,1,2.87.37,8.55,8.55,0,0,1,2.49,1l.51,3.23h-.21a4.59,4.59,0,0,0-2-3,6.94,6.94,0,0,0-3.65-.91,6,6,0,0,0-3.13.79,5.32,5.32,0,0,0-2,2.24,7.76,7.76,0,0,0-.72,3.47,7.64,7.64,0,0,0,.72,3.43,5.24,5.24,0,0,0,2.05,2.24,6.07,6.07,0,0,0,3.13.81,8.13,8.13,0,0,0,3.11-.56,5,5,0,0,0,2.25-1.75,5.71,5.71,0,0,0,1-3.07Z"/><path class="a" d="M325.7,129h0a1.22,1.22,0,0,0-.39-.87,1.33,1.33,0,0,0-.94-.35H324v-.23h2Zm0,10.83.3,1.46h-2V141h.32a1.3,1.3,0,0,0,.94-.36,1.34,1.34,0,0,0,.39-.87Zm1.42-12.28v13.74h-1.46V127.53Zm6.14,0v.71h-6.18v-.71Zm-1.05,6.53v.69h-5.13v-.69Zm1.07,6.5,0,.71h-6.16v-.71Zm1.29-2.56-1.26,3.27h-3.48l.77-.71a4.38,4.38,0,0,0,1.85-.33,3,3,0,0,0,1.13-.91,7,7,0,0,0,.76-1.32Zm-1.31-10.83v.59l-2.61-.23a10.2,10.2,0,0,0,1.51-.12A7.59,7.59,0,0,0,333.26,127.17Zm-1.05,5.63v1.31H331v-.05a.87.87,0,0,0,.71-.29,1,1,0,0,0,.23-.67v-.3Zm0,1.9V136H332v-.3a1.07,1.07,0,0,0-.23-.68.86.86,0,0,0-.71-.28v-.05Zm1.05-6.53v1.58H333v-.34a1.15,1.15,0,0,0-.31-.82,1.09,1.09,0,0,0-.84-.35v-.07Z"/><path class="a" d="M344.76,139.6a1,1,0,0,0,.07,1.07.92.92,0,0,0,.73.37h.18v.23h-4.37V141h.18a1.82,1.82,0,0,0,1-.33,2.69,2.69,0,0,0,.87-1.11Zm4.42-12.39.16,1.58-5.25,12.41h-1.44l5.43-11.63c.17-.37.31-.68.42-.95s.22-.53.31-.79a2.68,2.68,0,0,0,.16-.62Zm2.7,8.73v.68h-6.07v-.68Zm-2.7-8.73,6.3,13.93h-1.81l-4.88-11.89Zm3.87,12.39h1.74a2.45,2.45,0,0,0,.85,1.11,1.73,1.73,0,0,0,1,.33h.18v.23h-4.69V141h.18a.93.93,0,0,0,.71-.37A1,1,0,0,0,353.05,139.6Z"/><path class="a" d="M365.23,127.21a12.44,12.44,0,0,1,2,.15,8.91,8.91,0,0,1,1.76.46,8.21,8.21,0,0,1,1.6.79l.5,3.23h-.21a5.32,5.32,0,0,0-1-2.22,4.3,4.3,0,0,0-1.86-1.3,8,8,0,0,0-2.75-.42,5.81,5.81,0,0,0-3.06.79,5.36,5.36,0,0,0-2,2.24,8.59,8.59,0,0,0,0,6.93,5.38,5.38,0,0,0,2.06,2.26,6,6,0,0,0,3.07.79,7.78,7.78,0,0,0,1.83-.21,6.85,6.85,0,0,0,1.69-.65,7.11,7.11,0,0,0,1.52-1.14l0-3a.75.75,0,0,0-.26-.67,1.26,1.26,0,0,0-.79-.22h-.32v-.23h4.19V135h-.32c-.69,0-1,.3-1,.91v2.75a8,8,0,0,1-1.45,1.35,8.47,8.47,0,0,1-2.18,1.15,9.36,9.36,0,0,1-6.85-.44,6.31,6.31,0,0,1-2.62-2.47,8.31,8.31,0,0,1,0-7.68,6.34,6.34,0,0,1,2.63-2.47A8.5,8.5,0,0,1,365.23,127.21Z"/><path class="a" d="M376.43,129h-.05a1.18,1.18,0,0,0-.38-.87,1.33,1.33,0,0,0-.94-.35h-.32v-.23h2Zm0,10.83.3,1.46h-2V141h.32a1.3,1.3,0,0,0,.94-.36,1.28,1.28,0,0,0,.38-.87Zm1.42-12.28v13.74h-1.47V127.53Zm6.14,0v.71H377.8v-.71Zm-1.06,6.53v.69H377.8v-.69Zm1.08,6.5-.05.71H377.8v-.71Zm1.28-2.56L384,141.27h-3.48l.78-.71a4.33,4.33,0,0,0,1.84-.33,2.94,2.94,0,0,0,1.14-.91,6.48,6.48,0,0,0,.75-1.32ZM384,127.17v.59l-2.61-.23a10.31,10.31,0,0,0,1.51-.12A7.93,7.93,0,0,0,384,127.17Zm-1.06,5.63v1.31h-1.19v-.05a.86.86,0,0,0,.71-.29,1,1,0,0,0,.23-.67v-.3Zm0,1.9V136h-.25v-.3a1,1,0,0,0-.23-.68.85.85,0,0,0-.71-.28v-.05Zm1.06-6.53v1.58h-.25v-.34a1.19,1.19,0,0,0-.31-.82,1.09,1.09,0,0,0-.84-.35v-.07Z"/><path class="a" d="M388.75,139.85v1.42H387V141h.39a1.28,1.28,0,0,0,.9-.34,1.13,1.13,0,0,0,.36-.85Zm-.05-12.66,1,1.28,0,12.8h-1V130.05a25.82,25.82,0,0,0-.2-2.86Zm0,0,12.69,11.95.23,2.45-12.69-12Zm1,12.66a1.11,1.11,0,0,0,.38.85,1.26,1.26,0,0,0,.88.34h.39v.23h-1.72v-1.42Zm10.9-10.9a1.13,1.13,0,0,0-.39-.84,1.25,1.25,0,0,0-.89-.35h-.39v-.23h1.72V129Zm1-1.42v11.13c0,.49,0,1,.05,1.41s.08,1,.16,1.52h-.21l-1-1.21V127.53Zm-.07,1.42v-1.42h1.72v.23h-.39a1.27,1.27,0,0,0-.88.35,1.09,1.09,0,0,0-.38.84Z"/><path class="a" d="M419.46,135.5l-.25,3.14a5.72,5.72,0,0,1-1.56,1.58,7.61,7.61,0,0,1-2.17,1,9,9,0,0,1-2.57.35,8.89,8.89,0,0,1-4-.89,6.19,6.19,0,0,1-2.62-2.47,8.47,8.47,0,0,1,0-7.68,6.25,6.25,0,0,1,2.62-2.47,8.76,8.76,0,0,1,4-.87,11.28,11.28,0,0,1,2.86.37,8.5,8.5,0,0,1,2.5,1l.5,3.23h-.2a4.59,4.59,0,0,0-2-3,6.94,6.94,0,0,0-3.65-.91,5.94,5.94,0,0,0-3.13.79,5.41,5.41,0,0,0-2,2.24,7.76,7.76,0,0,0-.72,3.47,7.64,7.64,0,0,0,.72,3.43,5.36,5.36,0,0,0,2,2.24,6.13,6.13,0,0,0,3.14.81,8.13,8.13,0,0,0,3.11-.56,5,5,0,0,0,2.25-1.75,5.63,5.63,0,0,0,1-3.07Z"/><path class="a" d="M424.82,129l-1.95-.07a2.67,2.67,0,0,0-.9-.84,2.33,2.33,0,0,0-1.2-.31h-.28v-.23h5.32v.23h-.28a.77.77,0,0,0-.72.4A.8.8,0,0,0,424.82,129Zm-.8-1.43,4.24,7.54-.94.8L422,127.55Zm3.16,12.26v1.46h-1.67V141h.27a1.29,1.29,0,0,0,.93-.36,1.26,1.26,0,0,0,.4-.87Zm1.42-4.45v5.91h-1.49v-5.91Zm3.85-7.81h1.44l-5.45,8.3-.85-.26Zm-3.92,12.26h.07a1.26,1.26,0,0,0,.4.87,1.29,1.29,0,0,0,.93.36h.27v.23h-1.67ZM431.58,129a.84.84,0,0,0,0-.85.79.79,0,0,0-.73-.39h-.28v-.23h4.79v.23h-.28a2.21,2.21,0,0,0-1.2.36,2.88,2.88,0,0,0-.88.81Z"/><path class="a" d="M434.6,139.79a.79.79,0,0,1,.5-.43,1,1,0,0,1,1.24.65,2.64,2.64,0,0,1,.22,1.23,2.27,2.27,0,0,1-.36,1,2.21,2.21,0,0,1-.76.73,2.08,2.08,0,0,1-1,.3l-.05-.18a1.43,1.43,0,0,0,.89-.62,1.16,1.16,0,0,0,.13-.79,1.53,1.53,0,0,0-.26-.63l-.31-.37a1.14,1.14,0,0,1-.26-.42A.7.7,0,0,1,434.6,139.79Z"/><path class="a" d="M446.76,129h-.05a1.18,1.18,0,0,0-.41-.88,1.36,1.36,0,0,0-1-.36h-.27v-.23h1.69Zm0,10.81.3,1.46h-2V141h.32a1.3,1.3,0,0,0,.94-.36,1.28,1.28,0,0,0,.38-.87Zm1.42-12.28v13.74h-1.47V127.53Zm-.07,1.47v-1.47h1.7v.23h-.28a1.37,1.37,0,0,0-.95.36,1.11,1.11,0,0,0-.4.88Zm6.23,11.56,0,.71h-6.16v-.71Zm1.28-2.56-1.26,3.27h-3.48l.78-.71a4.33,4.33,0,0,0,1.84-.33,2.94,2.94,0,0,0,1.14-.91,6.48,6.48,0,0,0,.75-1.32Z"/><path class="a" d="M458.74,129h-.05a1.18,1.18,0,0,0-.41-.88,1.36,1.36,0,0,0-1-.36H457v-.23h1.7Zm0,10.81.3,1.46h-2V141h.32a1.28,1.28,0,0,0,.94-.36,1.25,1.25,0,0,0,.39-.87Zm1.42-12.28v13.74h-1.47V127.53Zm-.07,1.47v-1.47h1.69v.23h-.27a1.37,1.37,0,0,0-.95.36,1.11,1.11,0,0,0-.4.88Zm6.23,11.56-.05.71h-6.16v-.71ZM467.6,138l-1.26,3.27h-3.48l.78-.71a4.33,4.33,0,0,0,1.84-.33,3,3,0,0,0,1.14-.91,6.48,6.48,0,0,0,.75-1.32Z"/><path class="a" d="M483.45,135.5l-.25,3.14a5.72,5.72,0,0,1-1.56,1.58,7.67,7.67,0,0,1-2.18,1,9.53,9.53,0,0,1-6.58-.54,6.14,6.14,0,0,1-2.62-2.47,8.47,8.47,0,0,1,0-7.68,6.2,6.2,0,0,1,2.62-2.47,8.76,8.76,0,0,1,4-.87,11.28,11.28,0,0,1,2.86.37,8.62,8.62,0,0,1,2.5,1l.5,3.23h-.2a4.62,4.62,0,0,0-2-3,7,7,0,0,0-3.65-.91,5.94,5.94,0,0,0-3.13.79,5.28,5.28,0,0,0-2,2.24,7.76,7.76,0,0,0-.72,3.47,7.64,7.64,0,0,0,.72,3.43,5.3,5.3,0,0,0,2.05,2.24,6.11,6.11,0,0,0,3.14.81,8.08,8.08,0,0,0,3.1-.56,5,5,0,0,0,2.26-1.75,5.63,5.63,0,0,0,1-3.07Z"/></svg>