<svg xmlns="http://www.w3.org/2000/svg" xmlns:xlink="http://www.w3.org/1999/xlink" width="323.982" height="75.478" viewBox="0 0 323.982 75.478"><defs><clipPath id="a"><rect width="323.982" height="75.478" fill="none"/></clipPath></defs><g clip-path="url(#a)"><path d="M123.324,134.743a33.727,33.727,0,0,1-.174-5.072c-.011-1.02-.019-2.042-.025-2.839a16.115,16.115,0,0,0-5.524-.964h-.239a16.352,16.352,0,0,0-5.523.967c-.006.8-.015,1.817-.026,2.836a33.538,33.538,0,0,1-.174,5.072,10.8,10.8,0,0,1-4.9,7.084,35.291,35.291,0,0,1,11.057,8.858c1.055-1.05,2.31-2.25,3.677-3.462a45.058,45.058,0,0,1,7-5.248,10.8,10.8,0,0,1-5.15-7.234" transform="translate(-79.743 -94.036)" fill="#25aae1"/><path d="M72.512,23.049a37.859,37.859,0,1,0,2.966,14.69,37.612,37.612,0,0,0-2.966-14.69M37.739,74.483A36.545,36.545,0,0,1,16.58,67.764a4.28,4.28,0,0,0,5.725-5.807,25.054,25.054,0,0,1-2.9-7.613.707.707,0,0,1,.539-.537,13.955,13.955,0,0,1,3.89,1.412C26.39,56.546,30.283,59.3,34.293,64.9a4.254,4.254,0,0,0,3.245,1.781c.079,0,.156.007.234.007a4.282,4.282,0,0,0,3.192-1.43A84.826,84.826,0,0,1,47.092,59.2c5.582-4.939,7.967-5.372,8.333-5.41a.709.709,0,0,1,.621.531A26.406,26.406,0,0,1,53.4,61.95,4.28,4.28,0,0,0,58.56,68a36.536,36.536,0,0,1-20.82,6.482m19.444-7.252a3.284,3.284,0,0,1-2.9-4.817A27.339,27.339,0,0,0,57.043,54.4l.012-.075-.011-.075A1.693,1.693,0,0,0,55.438,52.8H55.41l-.028,0c-.651.047-3.222.592-8.95,5.66A84.5,84.5,0,0,0,40.22,64.6a3.284,3.284,0,0,1-2.448,1.1c-.059,0-.117,0-.179-.005A3.265,3.265,0,0,1,35.1,64.324c-4.125-5.763-8.157-8.612-10.813-9.988a14.529,14.529,0,0,0-4.27-1.524L19.95,52.8l-.068.008a1.712,1.712,0,0,0-1.477,1.465l-.008.064.008.064c.148,1.131.737,3.677,3.019,8.018a3.283,3.283,0,1,1-5.813,3.055c-.16-.3-.328-.631-.5-.974a43.856,43.856,0,0,1-1.839-4.144c-.417-1.1-.728-2.175-1-3.173a10.05,10.05,0,0,1-.432-2.886,8.1,8.1,0,0,1,.62-2.98A8.3,8.3,0,0,1,14.9,48.06l.641-.516-.755-.327A47.284,47.284,0,0,1,4.967,41.2a3.283,3.283,0,0,1,2.006-5.884,3.3,3.3,0,0,1,2,.683C16.43,41.743,20.771,42.3,21.241,42.35l.179,0h.02a3.748,3.748,0,0,0,3.6-3.755V11.53a3.283,3.283,0,0,1,6.567,0V14.7l.891-1.156a6.752,6.752,0,0,1,10.494-.275l.875,1.02V11.53a3.283,3.283,0,1,1,6.567,0V38.6a3.748,3.748,0,0,0,3.6,3.755h.15l.048,0C54.71,42.3,59.058,41.735,66.5,36a3.294,3.294,0,0,1,2-.683A3.284,3.284,0,0,1,70.511,41.2a47.294,47.294,0,0,1-9.861,6.037l-.751.324.634.517a8.594,8.594,0,0,1,.654.591A8.167,8.167,0,0,1,63.6,54.5v.115A18.22,18.22,0,0,1,62.437,59.9l-.065.2a34.728,34.728,0,0,1-2.284,5.379,3.277,3.277,0,0,1-2.9,1.75m3.486-.8a4.312,4.312,0,0,0,.3-.485,35.729,35.729,0,0,0,2.349-5.534l.066-.2a19,19,0,0,0,1.21-5.589V54.5a9.154,9.154,0,0,0-2.7-6.536l-.137-.134a49.773,49.773,0,0,0,9.364-5.845,4.278,4.278,0,0,0-2.613-7.666,4.3,4.3,0,0,0-2.611.889c-7.113,5.483-11.184,6.09-11.729,6.148h-.094a2.755,2.755,0,0,1-2.64-2.76V11.53a4.278,4.278,0,0,0-8.557,0v.224a7.744,7.744,0,0,0-10.27.209V11.53a4.279,4.279,0,0,0-8.557,0V38.6a2.755,2.755,0,0,1-2.638,2.76h-.1c-.542-.057-4.606-.656-11.73-6.148a4.3,4.3,0,0,0-2.611-.889A4.278,4.278,0,0,0,4.36,41.986a49.76,49.76,0,0,0,9.324,5.825,9.288,9.288,0,0,0-2.144,3.127,9.092,9.092,0,0,0-.7,3.344,10.963,10.963,0,0,0,.467,3.168c.281,1.02.6,2.122,1.031,3.261a44.869,44.869,0,0,0,1.881,4.238c.175.348.346.681.508.99a4.292,4.292,0,0,0,.724,1,36.745,36.745,0,1,1,45.214-.506" fill="#c34822"/><path d="M95.628,189.878h-.044a6.41,6.41,0,0,0-2.142.38c-.037.013-.074.027-.111.042-2.651.858-5.943,3.019-9.827,6.458-2.237,1.98-4.165,3.935-5.348,5.18-6.2-8.035-12.282-10.722-15.463-11.617a6.414,6.414,0,0,0-2.354-.444h-.071a6.729,6.729,0,0,0-3.576,1.129,6.528,6.528,0,0,0-2.324,2.857,6.361,6.361,0,0,0-.483,2.325,8.246,8.246,0,0,0,.368,2.376c.281,1.018.576,2.023.951,3.014a42.26,42.26,0,0,0,1.765,3.976q.238.474.485.944a1.493,1.493,0,0,0,2.642-1.389c-2.5-4.762-3.105-7.571-3.238-8.855a3.486,3.486,0,0,1,3.429-3.391,15.325,15.325,0,0,1,5.081,1.739c2.83,1.465,7.113,4.482,11.446,10.535a1.492,1.492,0,0,0,1.134.622l.08,0a1.493,1.493,0,0,0,1.114-.5,86.133,86.133,0,0,1,6.361-6.288c5.9-5.22,8.879-6.073,10.139-6.112a3.486,3.486,0,0,1,3.466,3.405,28.466,28.466,0,0,1-2.986,8.84,1.492,1.492,0,1,0,2.639,1.394,32.925,32.925,0,0,0,2.165-5.1,17.5,17.5,0,0,0,1.137-4.965c0-.03,0-.06,0-.091a6.488,6.488,0,0,0-6.437-6.468" transform="translate(-40.257 -141.857)" fill="#f7941e"/><path d="M34.573,76.274a8.488,8.488,0,0,0,2.8.506l.085,0h.034a8.545,8.545,0,0,0,8.38-7.03c.086-.189.135-8.836.135-8.836a19.1,19.1,0,0,1,15.843,0s.049,8.647.135,8.836a8.545,8.545,0,0,0,8.38,7.03H70.4l.085,0a8.487,8.487,0,0,0,2.8-.506c.387-.111.81-.246,1.269-.41A41.833,41.833,0,0,0,85.6,69.43a1.492,1.492,0,1,0-1.822-2.364C75.5,73.448,70.833,73.779,70.429,73.8c-.03,0,.008,0-.049,0a5.554,5.554,0,0,1-5.547-5.548V41.181a1.493,1.493,0,1,0-2.985,0V57.673a21.507,21.507,0,0,0-7.9-1.462H53.9a21.508,21.508,0,0,0-7.9,1.462V41.181a1.492,1.492,0,1,0-2.985,0V68.248A5.554,5.554,0,0,1,37.473,73.8c-.057,0-.019-.005-.049,0-.4-.016-5.076-.347-13.353-6.729a1.492,1.492,0,1,0-1.822,2.364A41.83,41.83,0,0,0,33.3,75.864c.459.164.882.3,1.269.41" transform="translate(-16.187 -29.651)" fill="#f7941e"/><path d="M135,60.148a4.975,4.975,0,1,0-4.975-4.975A4.975,4.975,0,0,0,135,60.148" transform="translate(-97.141 -37.503)" fill="#25aae1"/><path d="M380.1,28.587V62.476H368.675V49.986H358.121V62.476H346.7V28.587h11.425V40.593h10.554V28.587Z" transform="translate(-259.015 -21.357)" fill="#25aae1"/><path d="M526.764,57.961a33.369,33.369,0,0,1-14.33,3c-11.716,0-17.768-4.406-17.768-10.554a8.274,8.274,0,0,1,5.326-7.746,7.312,7.312,0,0,1-3.922-6.584c0-5.519,5.277-10.554,17.041-10.554A35.573,35.573,0,0,1,525.8,27.751l-3.1,8.327a23.9,23.9,0,0,0-9.15-1.84c-4.164,0-5.955,1.017-5.955,2.566,0,1.259.775,2.082,3.147,2.082h9.925V47.31h-10.7c-2.614,0-3.776.92-3.776,2.324,0,1.549,1.84,2.615,6.681,2.615a24.4,24.4,0,0,0,10.554-2.566Z" transform="translate(-369.563 -19.069)" fill="#25aae1"/><path d="M661.113,42.13V60.188H649.688V53.362H638.94v6.826H627.708V42.13c0-10.6,6.826-16.606,16.7-16.606s16.7,6,16.7,16.606m-11.425,2.614V41.162c0-4.357-2.275-6.391-5.374-6.391s-5.374,2.034-5.374,6.391v3.583Z" transform="translate(-468.958 -19.069)" fill="#25aae1"/><path d="M780.465,28.587h11.426v25.03h15.3v8.86H780.465Z" transform="translate(-583.082 -21.357)" fill="#25aae1"/><path d="M910.871,37.2V53.858h5.083v8.617H894.362V53.858h5.083V37.2h-5.083V28.586h21.592V37.2Z" transform="translate(-668.174 -21.357)" fill="#25aae1"/><path d="M1030.561,40.581V60.188h-11.425V40.92c0-4.26-1.985-6.149-5.035-6.149-2.953,0-5.325,2.034-5.325,6.536V60.188H997.349V26.3h11.087V29.93a11.465,11.465,0,0,1,9.489-4.406c7.988,0,12.636,5.374,12.636,15.057" transform="translate(-745.115 -19.069)" fill="#25aae1"/><path d="M1167.751,42.323h9.925V60.188h-7.456V58.106c-2.421,2.033-5.519,2.856-9.1,2.856-9.44,0-17.138-6.1-17.138-17.283,0-10.845,7.988-18.155,19.172-18.155,6.681,0,12.055,2.324,15.492,6.536l-7.311,6.439a9.668,9.668,0,0,0-7.6-3.728c-5.035,0-8.23,3.244-8.23,8.811,0,5.858,3.2,8.327,7.214,8.327a8.79,8.79,0,0,0,5.035-1.452Z" transform="translate(-854.662 -19.069)" fill="#25aae1"/><path d="M540.92,187.263v16.963H539.2v-13.57l-6.664,11.413h-.848l-6.664-11.34v13.5H523.3V187.263h1.478l7.367,12.576,7.294-12.576Z" transform="translate(-390.958 -139.904)" fill="#f7941e"/><path d="M619.842,208.5v7.9h-1.648v-1.987a4.786,4.786,0,0,1-4.386,2.108c-2.884,0-4.652-1.5-4.652-3.708,0-1.963,1.26-3.61,4.919-3.61h4.047v-.775c0-2.181-1.236-3.368-3.61-3.368a6.493,6.493,0,0,0-4.241,1.5l-.775-1.284a8.093,8.093,0,0,1,5.186-1.721c3.3,0,5.161,1.648,5.161,4.943m-1.72,4.071v-2.084h-4c-2.472,0-3.271.969-3.271,2.278,0,1.478,1.187,2.4,3.223,2.4a4.078,4.078,0,0,0,4.047-2.593" transform="translate(-455.098 -152.073)" fill="#f7941e"/><path d="M676.326,203.552v1.672c-.145,0-.291-.024-.412-.024-2.666,0-4.289,1.7-4.289,4.7v6.494H669.9V203.649h1.648v2.5c.8-1.7,2.423-2.593,4.774-2.593" transform="translate(-500.482 -152.073)" fill="#f7941e"/><path d="M712.285,194.821l-3,2.762v3.635H707.56v-17.98h1.721v12.189l7.609-6.955h2.132l-5.452,5.21,5.961,7.536h-2.108Z" transform="translate(-528.615 -136.897)" fill="#f7941e"/><path d="M770.44,210.555H759.778a4.718,4.718,0,0,0,5.016,4.435,5.024,5.024,0,0,0,3.9-1.672l.969,1.115a6.739,6.739,0,0,1-11.607-4.41,6.139,6.139,0,0,1,6.227-6.47c3.586,0,6.179,2.641,6.179,6.47,0,.145-.024.339-.024.533m-10.662-1.284h9.039a4.528,4.528,0,0,0-9.039,0" transform="translate(-566.341 -152.073)" fill="#f7941e"/><path d="M821.85,207.674a4.1,4.1,0,0,1-2.69.9,3.376,3.376,0,0,1-3.732-3.708v-7.706h-2.278V195.7h2.278v-2.786h1.72V195.7h3.877v1.454h-3.877v7.609a2.041,2.041,0,0,0,2.205,2.326,2.848,2.848,0,0,0,1.89-.655Z" transform="translate(-607.502 -144.127)" fill="#f7941e"/><path d="M872.826,210.021a6.173,6.173,0,0,1-6.349,6.494A5.568,5.568,0,0,1,861.63,214v7.1h-1.72V203.648h1.648v2.52a5.552,5.552,0,0,1,4.919-2.617,6.166,6.166,0,0,1,6.349,6.47m-1.72,0a4.754,4.754,0,1,0-4.75,4.968,4.694,4.694,0,0,0,4.75-4.968" transform="translate(-642.435 -152.072)" fill="#f7941e"/><rect width="1.721" height="17.98" transform="translate(233.905 46.342)" fill="#f7941e"/><path d="M957.12,208.5v7.9h-1.648v-1.987a4.786,4.786,0,0,1-4.386,2.108c-2.884,0-4.652-1.5-4.652-3.708,0-1.963,1.26-3.61,4.919-3.61H955.4v-.775c0-2.181-1.236-3.368-3.61-3.368a6.493,6.493,0,0,0-4.241,1.5l-.775-1.284a8.092,8.092,0,0,1,5.186-1.721c3.3,0,5.161,1.648,5.161,4.943m-1.72,4.071v-2.084h-4c-2.472,0-3.271.969-3.271,2.278,0,1.478,1.188,2.4,3.223,2.4a4.078,4.078,0,0,0,4.047-2.593" transform="translate(-707.077 -152.073)" fill="#f7941e"/><path d="M1002.3,210.021a6.274,6.274,0,0,1,6.567-6.47,5.567,5.567,0,0,1,4.992,2.52l-1.284.872a4.334,4.334,0,0,0-3.708-1.89,4.97,4.97,0,0,0,0,9.935,4.311,4.311,0,0,0,3.708-1.866l1.284.873a5.619,5.619,0,0,1-4.992,2.52,6.294,6.294,0,0,1-6.567-6.494" transform="translate(-748.811 -152.072)" fill="#f7941e"/><path d="M1067.762,210.555H1057.1a4.718,4.718,0,0,0,5.016,4.435,5.024,5.024,0,0,0,3.9-1.672l.969,1.115a6.739,6.739,0,0,1-11.607-4.41,6.139,6.139,0,0,1,6.228-6.47c3.586,0,6.179,2.641,6.179,6.47,0,.145-.024.339-.024.533m-10.662-1.284h9.039a4.528,4.528,0,0,0-9.039,0" transform="translate(-788.469 -152.073)" fill="#f7941e"/></g></svg>