<svg xmlns="http://www.w3.org/2000/svg" xmlns:xlink="http://www.w3.org/1999/xlink" width="162.652" height="37.893" viewBox="0 0 162.652 37.893"><defs><clipPath id="a"><rect width="162.652" height="37.893" fill="none"/></clipPath></defs><g clip-path="url(#a)"><path d="M115.065,130.324a16.933,16.933,0,0,1-.087-2.546c-.005-.512-.009-1.025-.012-1.425a8.09,8.09,0,0,0-2.773-.484h-.12a8.21,8.21,0,0,0-2.773.486c0,.4-.007.912-.013,1.424a16.838,16.838,0,0,1-.087,2.546,5.422,5.422,0,0,1-2.461,3.557,17.717,17.717,0,0,1,5.551,4.447c.53-.527,1.159-1.13,1.846-1.738a22.621,22.621,0,0,1,3.516-2.635,5.423,5.423,0,0,1-2.586-3.632" transform="translate(-93.185 -109.888)" fill="#fff"/><path d="M36.4,11.572a19.007,19.007,0,1,0,1.489,7.375A18.883,18.883,0,0,0,36.4,11.572M18.947,37.394A18.347,18.347,0,0,1,8.324,34.02,2.148,2.148,0,0,0,11.2,31.105a12.578,12.578,0,0,1-1.458-3.822.355.355,0,0,1,.27-.27,7.006,7.006,0,0,1,1.953.709,15.329,15.329,0,0,1,5.252,4.861,2.135,2.135,0,0,0,1.629.894c.04,0,.078,0,.117,0a2.15,2.15,0,0,0,1.6-.718,42.587,42.587,0,0,1,3.077-3.041c2.8-2.48,4-2.7,4.183-2.716a.356.356,0,0,1,.312.266A13.257,13.257,0,0,1,26.81,31.1a2.149,2.149,0,0,0,2.59,3.038,18.343,18.343,0,0,1-10.453,3.254m9.762-3.641a1.649,1.649,0,0,1-1.457-2.418,13.725,13.725,0,0,0,1.387-4.025l.006-.038-.005-.038a.85.85,0,0,0-.806-.727H27.8c-.327.023-1.617.3-4.493,2.841a42.421,42.421,0,0,0-3.119,3.083,1.648,1.648,0,0,1-1.229.55l-.09,0a1.639,1.639,0,0,1-1.251-.686,15.823,15.823,0,0,0-5.429-5.014,7.294,7.294,0,0,0-2.144-.765l-.034-.005-.034,0a.859.859,0,0,0-.741.735l0,.032,0,.032a12.748,12.748,0,0,0,1.516,4.026,1.648,1.648,0,1,1-2.918,1.534c-.08-.152-.165-.317-.251-.489a22.018,22.018,0,0,1-.923-2.08c-.209-.553-.366-1.092-.5-1.593a5.045,5.045,0,0,1-.217-1.449,4.067,4.067,0,0,1,.311-1.5,4.166,4.166,0,0,1,1.228-1.636l.322-.259L7.425,23.7a23.738,23.738,0,0,1-4.932-3.022A1.648,1.648,0,0,1,3.5,17.729a1.655,1.655,0,0,1,1.006.343c3.742,2.885,5.921,3.167,6.157,3.189h.1a1.882,1.882,0,0,0,1.808-1.885V5.788a1.648,1.648,0,0,1,3.3,0V7.381l.448-.58a3.39,3.39,0,0,1,5.268-.138l.439.512V5.788a1.648,1.648,0,1,1,3.3,0V19.377a1.881,1.881,0,0,0,1.809,1.885h.1c.237-.023,2.42-.309,6.157-3.189a1.654,1.654,0,0,1,1.006-.343A1.648,1.648,0,0,1,35.4,20.683a23.743,23.743,0,0,1-4.951,3.031l-.377.163.318.26a4.314,4.314,0,0,1,.328.3,4.1,4.1,0,0,1,1.211,2.928v.058a9.147,9.147,0,0,1-.583,2.655l-.033.1a17.435,17.435,0,0,1-1.147,2.7,1.645,1.645,0,0,1-1.458.878m1.75-.4a2.165,2.165,0,0,0,.15-.243,17.937,17.937,0,0,0,1.179-2.778l.033-.1a9.537,9.537,0,0,0,.607-2.806v-.061a4.6,4.6,0,0,0-1.357-3.281L31,24.013a24.988,24.988,0,0,0,4.7-2.934,2.148,2.148,0,0,0-1.312-3.849,2.157,2.157,0,0,0-1.311.447c-3.571,2.753-5.615,3.057-5.889,3.087h-.047a1.383,1.383,0,0,1-1.325-1.386V5.788a2.148,2.148,0,1,0-4.3,0V5.9a3.888,3.888,0,0,0-5.156.105V5.788a2.148,2.148,0,0,0-4.3,0V19.377a1.383,1.383,0,0,1-1.324,1.386H10.7c-.272-.029-2.312-.329-5.889-3.087A2.157,2.157,0,0,0,3.5,17.23a2.148,2.148,0,0,0-1.312,3.849A24.982,24.982,0,0,0,6.87,24a4.663,4.663,0,0,0-1.076,1.57,4.564,4.564,0,0,0-.349,1.679,5.5,5.5,0,0,0,.235,1.591c.141.512.3,1.065.518,1.637a22.526,22.526,0,0,0,.944,2.128c.088.175.174.342.255.5a2.155,2.155,0,0,0,.364.5,18.448,18.448,0,1,1,22.7-.254" fill="#fff"/><path d="M74.842,189.878h-.022a3.218,3.218,0,0,0-1.076.191l-.055.021a15.408,15.408,0,0,0-4.934,3.242c-1.123.994-2.091,1.975-2.685,2.6-3.114-4.034-6.166-5.383-7.763-5.832a3.22,3.22,0,0,0-1.182-.223H57.09a3.378,3.378,0,0,0-1.8.567,3.277,3.277,0,0,0-1.167,1.434,3.193,3.193,0,0,0-.242,1.167,4.14,4.14,0,0,0,.185,1.193c.141.511.289,1.016.478,1.513a21.219,21.219,0,0,0,.886,2q.119.238.243.474a.749.749,0,0,0,1.326-.7,13.01,13.01,0,0,1-1.625-4.446,1.75,1.75,0,0,1,1.721-1.7,7.694,7.694,0,0,1,2.551.873A16.708,16.708,0,0,1,65.4,197.54a.749.749,0,0,0,.569.312h.04a.75.75,0,0,0,.559-.251,43.244,43.244,0,0,1,3.193-3.157c2.962-2.621,4.458-3.049,5.09-3.069a1.75,1.75,0,0,1,1.74,1.71,14.291,14.291,0,0,1-1.5,4.438.749.749,0,1,0,1.325.7,16.528,16.528,0,0,0,1.087-2.561,8.788,8.788,0,0,0,.571-2.493c0-.015,0-.03,0-.045a3.257,3.257,0,0,0-3.231-3.247" transform="translate(-47.043 -165.77)" fill="#fff"/><path d="M28.146,58.056a4.261,4.261,0,0,0,1.4.254h.06a4.29,4.29,0,0,0,4.207-3.529c.043-.095.068-4.436.068-4.436a9.589,9.589,0,0,1,7.954,0s.025,4.341.068,4.436a4.29,4.29,0,0,0,4.207,3.529h.06a4.261,4.261,0,0,0,1.4-.254c.194-.056.407-.123.637-.206a21,21,0,0,0,5.55-3.23.749.749,0,1,0-.915-1.187c-4.156,3.2-6.5,3.37-6.7,3.378-.015,0,0,0-.025,0a2.788,2.788,0,0,1-2.785-2.785V40.437a.749.749,0,1,0-1.5,0v8.28a10.8,10.8,0,0,0-3.966-.734h-.022a10.8,10.8,0,0,0-3.966.734v-8.28a.749.749,0,1,0-1.5,0V54.026A2.788,2.788,0,0,1,29.6,56.812c-.029,0-.01,0-.025,0-.2-.008-2.548-.174-6.7-3.378a.749.749,0,1,0-.915,1.187,21,21,0,0,0,5.55,3.23c.23.082.443.15.637.206" transform="translate(-18.916 -34.649)" fill="#fff"/><path d="M132.523,55.193a2.5,2.5,0,1,0-2.5-2.5,2.5,2.5,0,0,0,2.5,2.5" transform="translate(-113.516 -43.824)" fill="#fff"/><path d="M363.466,28.587V45.6H357.73V39.33h-5.3V45.6H346.7V28.587h5.736v6.028h5.3V28.587Z" transform="translate(-302.677 -24.957)" fill="#fff"/><path d="M510.781,41.809a16.752,16.752,0,0,1-7.194,1.507c-5.882,0-8.92-2.212-8.92-5.3a4.154,4.154,0,0,1,2.674-3.889,3.671,3.671,0,0,1-1.969-3.305c0-2.771,2.649-5.3,8.555-5.3a17.859,17.859,0,0,1,6.368,1.118l-1.556,4.181a12,12,0,0,0-4.594-.924c-2.09,0-2.99.51-2.99,1.288,0,.632.389,1.045,1.58,1.045h4.983v4.229h-5.372c-1.312,0-1.9.462-1.9,1.167,0,.778.924,1.313,3.354,1.313a12.248,12.248,0,0,0,5.3-1.288Z" transform="translate(-431.859 -22.283)" fill="#fff"/><path d="M644.479,33.861v9.066h-5.736V39.5h-5.4v3.427h-5.639V33.861c0-5.323,3.427-8.337,8.385-8.337s8.385,3.014,8.385,8.337m-5.736,1.312v-1.8c0-2.187-1.142-3.208-2.7-3.208s-2.7,1.021-2.7,3.208v1.8Z" transform="translate(-548.009 -22.283)" fill="#fff"/><path d="M780.465,28.587H786.2V41.153h7.68V45.6H780.465Z" transform="translate(-681.371 -24.957)" fill="#fff"/><path d="M902.651,32.913v8.361H905.2V45.6h-10.84V41.274h2.552V32.913h-2.552V28.586H905.2v4.326Z" transform="translate(-780.807 -24.957)" fill="#fff"/><path d="M1014.023,33.083v9.844h-5.736V33.253c0-2.139-1-3.087-2.528-3.087-1.483,0-2.674,1.021-2.674,3.281v9.479h-5.736V25.913h5.566v1.823a5.756,5.756,0,0,1,4.764-2.212c4.01,0,6.344,2.7,6.344,7.559" transform="translate(-870.718 -22.283)" fill="#fff"/><path d="M1155.914,33.958h4.983v8.969h-3.743V41.882a6.861,6.861,0,0,1-4.569,1.434c-4.74,0-8.6-3.062-8.6-8.677,0-5.444,4.01-9.115,9.625-9.115a9.656,9.656,0,0,1,7.778,3.281l-3.67,3.233a4.854,4.854,0,0,0-3.816-1.872c-2.528,0-4.132,1.628-4.132,4.424,0,2.941,1.6,4.181,3.622,4.181a4.413,4.413,0,0,0,2.528-.729Z" transform="translate(-998.731 -22.283)" fill="#fff"/><path d="M532.148,187.263v8.516h-.864v-6.813l-3.346,5.73h-.426L524.167,189v6.776H523.3v-8.516h.742l3.7,6.314,3.662-6.314Z" transform="translate(-456.861 -163.487)" fill="#fff"/><path d="M614.521,206.034V210h-.827v-1a2.4,2.4,0,0,1-2.2,1.058c-1.448,0-2.336-.754-2.336-1.861,0-.985.633-1.813,2.47-1.813h2.032V206c0-1.095-.62-1.691-1.813-1.691a3.26,3.26,0,0,0-2.129.754l-.389-.645a4.063,4.063,0,0,1,2.6-.864,2.273,2.273,0,0,1,2.591,2.482m-.864,2.044v-1.046H611.65c-1.241,0-1.642.487-1.642,1.143,0,.742.6,1.2,1.618,1.2a2.047,2.047,0,0,0,2.032-1.3" transform="translate(-531.813 -177.707)" fill="#fff"/><path d="M673.128,203.552v.839c-.073,0-.146-.012-.207-.012a2.07,2.07,0,0,0-2.153,2.36V210H669.9v-6.4h.827v1.253a2.413,2.413,0,0,1,2.4-1.3" transform="translate(-584.848 -177.707)" fill="#fff"/><path d="M709.932,189.054l-1.509,1.387v1.825h-.864v-9.027h.864v6.119l3.82-3.491h1.07l-2.737,2.616,2.993,3.783h-1.058Z" transform="translate(-617.723 -159.973)" fill="#fff"/><path d="M764.274,207.068h-5.353a2.369,2.369,0,0,0,2.518,2.226,2.522,2.522,0,0,0,1.959-.84l.487.56a3.383,3.383,0,0,1-5.827-2.214,3.082,3.082,0,0,1,3.126-3.248,3.049,3.049,0,0,1,3.1,3.248c0,.073-.012.17-.012.268m-5.353-.645h4.538a2.273,2.273,0,0,0-4.538,0" transform="translate(-661.808 -177.707)" fill="#fff"/><path d="M817.518,200.326a2.057,2.057,0,0,1-1.35.45,1.7,1.7,0,0,1-1.873-1.861v-3.869h-1.144v-.73h1.144v-1.4h.864v1.4H817.1v.73h-1.946v3.82a1.025,1.025,0,0,0,1.107,1.168,1.429,1.429,0,0,0,.949-.329Z" transform="translate(-709.907 -168.423)" fill="#fff"/><path d="M866.394,206.8a3.1,3.1,0,0,1-3.187,3.26,2.8,2.8,0,0,1-2.433-1.265v3.564h-.864V203.6h.827v1.265a2.787,2.787,0,0,1,2.47-1.314,3.1,3.1,0,0,1,3.187,3.248m-.864,0a2.387,2.387,0,1,0-2.384,2.494,2.357,2.357,0,0,0,2.384-2.494" transform="translate(-750.729 -177.707)" fill="#fff"/><rect width="0.864" height="9.027" transform="translate(117.43 23.265)" fill="#fff"/><path d="M951.8,206.034V210h-.827v-1a2.4,2.4,0,0,1-2.2,1.058c-1.448,0-2.336-.754-2.336-1.861,0-.985.633-1.813,2.469-1.813h2.032V206c0-1.095-.62-1.691-1.813-1.691a3.26,3.26,0,0,0-2.129.754l-.389-.645a4.063,4.063,0,0,1,2.6-.864,2.273,2.273,0,0,1,2.591,2.482m-.864,2.044v-1.046h-2.007c-1.241,0-1.642.487-1.642,1.143,0,.742.6,1.2,1.618,1.2a2.047,2.047,0,0,0,2.032-1.3" transform="translate(-826.267 -177.707)" fill="#fff"/><path d="M1002.3,206.8a3.15,3.15,0,0,1,3.3-3.248,2.8,2.8,0,0,1,2.506,1.265l-.645.438a2.176,2.176,0,0,0-1.861-.949,2.5,2.5,0,0,0,0,4.988,2.164,2.164,0,0,0,1.861-.937l.645.438a2.821,2.821,0,0,1-2.506,1.265,3.16,3.16,0,0,1-3.3-3.26" transform="translate(-875.036 -177.707)" fill="#fff"/><path d="M1061.6,207.068h-5.353a2.369,2.369,0,0,0,2.518,2.226,2.522,2.522,0,0,0,1.959-.84l.487.56a3.383,3.383,0,0,1-5.827-2.214,3.082,3.082,0,0,1,3.127-3.248,3.049,3.049,0,0,1,3.1,3.248c0,.073-.012.17-.012.268m-5.353-.645h4.538a2.273,2.273,0,0,0-4.538,0" transform="translate(-921.38 -177.707)" fill="#fff"/></g></svg>